<?xml version="1.0" encoding="UTF-8" standalone="no"?>
<!-- Created with Inkscape (http://www.inkscape.org/) -->

<svg
   
   viewBox="0 0 317.49999 238.125"
   version="1.1"
   id="svg1"
   xmlns:xlink="http://www.w3.org/1999/xlink"
   xmlns="http://www.w3.org/2000/svg"
   xmlns:svg="http://www.w3.org/2000/svg">
  <defs
     id="defs1">
    <linearGradient
       id="linearGradient44">
      <stop
         style="stop-color:#371800;stop-opacity:1;"
         offset="0"
         id="stop44" />
      <stop
         style="stop-color:#1b0c00;stop-opacity:1;"
         offset="1"
         id="stop45" />
    </linearGradient>
    <linearGradient
       id="linearGradient42">
      <stop
         style="stop-color:#b8b8b8;stop-opacity:1;"
         offset="0"
         id="stop42" />
      <stop
         style="stop-color:#616161;stop-opacity:1;"
         offset="1"
         id="stop43" />
    </linearGradient>
    <linearGradient
       id="linearGradient34">
      <stop
         style="stop-color:#b8b8b8;stop-opacity:1;"
         offset="0"
         id="stop33" />
      <stop
         style="stop-color:#616161;stop-opacity:1;"
         offset="1"
         id="stop34" />
    </linearGradient>
    <linearGradient
       xlink:href="#linearGradient34"
       id="linearGradient32"
       x1="11.729166"
       y1="38.1875"
       x2="107.33333"
       y2="112.625"
       gradientUnits="userSpaceOnUse"
       spreadMethod="pad" />
    <linearGradient
       xlink:href="#linearGradient34"
       id="linearGradient35"
       gradientUnits="userSpaceOnUse"
       x1="218.36252"
       y1="38.364582"
       x2="305.59375"
       y2="67.46875"
       spreadMethod="pad" />
    <linearGradient
       xlink:href="#linearGradient42"
       id="linearGradient43"
       x1="10.583331"
       y1="49.609375"
       x2="187.85417"
       y2="49.609375"
       gradientUnits="userSpaceOnUse" />
    <radialGradient
       xlink:href="#linearGradient44"
       id="radialGradient45"
       cx="34.395832"
       cy="14.022923"
       fx="34.395832"
       fy="14.022923"
       r="158.75"
       gradientTransform="matrix(0.99968036,-0.02528212,0.03242641,1.2821727,-0.44371862,36.335628)"
       gradientUnits="userSpaceOnUse" />
  </defs>
  <g
     id="layer1">
    <g
       id="popups">
      <rect
         style="fill:#0c0c0c;fill-opacity:1;stroke:#b57b30;stroke-width:0;stroke-linecap:round;stroke-linejoin:round;stroke-miterlimit:4;stroke-dasharray:none;stroke-dashoffset:0;stroke-opacity:1;paint-order:stroke markers fill"
         id="rect45"
         width="14.552086"
         height="15.875"
         x="26.458334"
         y="13.229166"
         ry="2.6458321" />
      <rect
         style="fill:#0c0c0c;fill-opacity:1;stroke:#b57b30;stroke-width:0;stroke-linecap:round;stroke-linejoin:round;stroke-miterlimit:4;stroke-dasharray:none;stroke-dashoffset:0;stroke-opacity:1;paint-order:stroke markers fill"
         id="rect45-2"
         width="14.552086"
         height="15.875"
         x="43.656242"
         y="13.229166"
         ry="2.6458321" />
      <rect
         style="fill:#0c0c0c;fill-opacity:1;stroke:#b57b30;stroke-width:0;stroke-linecap:round;stroke-linejoin:round;stroke-miterlimit:4;stroke-dasharray:none;stroke-dashoffset:0;stroke-opacity:1;paint-order:stroke markers fill"
         id="rect45-8"
         width="14.552086"
         height="15.875"
         x="60.854164"
         y="13.229166"
         ry="2.6458321" />
    </g>
    <g
       id="waveform_view"
       transform="matrix(0.92565409,0,0,1.0033004,-96.294822,44.804517)">
      <rect
         style="font-variation-settings:normal;display:inline;opacity:1;fill:#430400;fill-opacity:1;stroke:none;stroke-width:2.12731;stroke-linecap:round;stroke-linejoin:round;stroke-miterlimit:4;stroke-dasharray:none;stroke-dashoffset:0;stroke-opacity:1;paint-order:stroke markers fill"
         id="rect37"
         width="87.231232"
         height="29.104168"
         x="218.36252"
         y="38.364582"
         ry="0" />
      <g
         id="g37"
         style="stroke:#a70a00;stroke-width:1.32292;stroke-opacity:1">
        <path
        vector-effect="non-scaling-stroke"
        
           style="font-variation-settings:normal;display:inline;opacity:1;fill:none;fill-opacity:1;stroke-width:0.304885;stroke-linecap:round;stroke-linejoin:round;stroke-miterlimit:4;stroke-dasharray:none;stroke-dashoffset:0;stroke-opacity:1;paint-order:stroke markers fill"
           d="m 218.5162,52.916665 c 0.0293,-0.08983 0.0578,-0.895355 0.0871,-1.342979 0.0288,-0.440621 0.0575,-0.881256 0.0871,-1.321761 0.0286,-0.426589 0.0575,-0.853126 0.0874,-1.279524 0.0283,-0.405767 0.057,-0.811494 0.0871,-1.216979 0.0281,-0.378613 0.0567,-0.757141 0.0871,-1.135333 0.0277,-0.345475 0.0563,-0.690833 0.0871,-1.035705 0.0274,-0.306844 0.0557,-0.61354 0.0871,-0.919504 0.027,-0.263449 0.0549,-0.526743 0.0871,-0.788853 0.0265,-0.216021 0.0538,-0.431957 0.0871,-0.645774 0.0258,-0.165396 0.0517,-0.331152 0.0871,-0.492389 0.0247,-0.112825 0.0476,-0.228645 0.0871,-0.331224 0.0235,-0.06091 0.0453,-0.135278 0.0874,-0.164702 0.0264,-0.01845 0.0612,-0.01609 0.0871,0.0041 0.0425,0.03319 0.0637,0.109826 0.0871,0.17319 0.0392,0.105815 0.0622,0.223943 0.0871,0.339408 0.0352,0.163977 0.0613,0.332283 0.0871,0.50027 0.0332,0.216319 0.0606,0.434687 0.0871,0.653151 0.0321,0.26442 0.06,0.529993 0.0871,0.795723 0.0314,0.308063 0.0597,0.616843 0.0871,0.92577 0.0308,0.346629 0.0592,0.693744 0.0871,1.040958 0.0305,0.379722 0.0593,0.759745 0.0874,1.139881 0.0301,0.406724 0.0587,0.813698 0.0871,1.220717 0.0297,0.427234 0.0584,0.85463 0.0871,1.28205 0.0295,0.441022 0.0583,0.882151 0.0871,1.323276 0.0293,0.447796 0.058,0.895659 0.0871,1.343486 0.029,0.447461 0.0578,0.894953 0.0871,1.342374 0.0288,0.440085 0.0575,0.880172 0.0871,1.320144 0.0286,0.425673 0.0573,0.851318 0.0871,1.276797 0.0283,0.404597 0.057,0.809148 0.0871,1.213441 0.0281,0.377111 0.057,0.754105 0.0874,1.130787 0.0278,0.343651 0.0562,0.687202 0.0871,1.030248 0.0274,0.304795 0.0556,0.609443 0.0871,0.913341 0.027,0.261169 0.0549,0.522182 0.0871,0.781981 0.0264,0.213546 0.0537,0.427016 0.0871,0.638297 0.0257,0.162772 0.0516,0.325949 0.0871,0.484407 0.0246,0.110186 0.0473,0.223611 0.0871,0.323038 0.0233,0.05839 0.0455,0.130583 0.0871,0.156315 0.027,0.01674 0.0617,0.0093 0.087,-0.01263 0.0428,-0.03705 0.0638,-0.115651 0.0874,-0.181576 0.0389,-0.108902 0.0622,-0.229483 0.0871,-0.347593 0.035,-0.166712 0.0612,-0.33757 0.0871,-0.508153 0.0332,-0.218818 0.0606,-0.43962 0.0871,-0.660526 0.032,-0.26673 0.0601,-0.534584 0.0871,-0.802595 0.0313,-0.310095 0.0596,-0.62089 0.0871,-0.931831 0.0308,-0.348422 0.0592,-0.69731 0.0871,-1.046314 0.0304,-0.381199 0.0589,-0.76273 0.0871,-1.144326 0.0301,-0.407925 0.059,-0.81605 0.0874,-1.224254 0.0298,-0.428103 0.0584,-0.856383 0.0871,-1.284677 0.0295,-0.441528 0.0582,-0.883164 0.0871,-1.324792 0.0293,-0.447933 0.058,-0.895931 0.0871,-1.343891 0.029,-0.447259 0.0578,-0.89455 0.0871,-1.341767 0.0288,-0.439513 0.0575,-0.879029 0.0871,-1.318427 0.0286,-0.424799 0.0573,-0.849569 0.0871,-1.274168 0.0282,-0.403355 0.057,-0.80665 0.0871,-1.209703 0.028,-0.375588 0.0566,-0.7511 0.0871,-1.126241 0.0277,-0.341823 0.0565,-0.683493 0.0874,-1.02469 0.0274,-0.302703 0.0556,-0.605277 0.0871,-0.907075 0.027,-0.25889 0.0548,-0.517623 0.0871,-0.775111 0.0265,-0.211073 0.0536,-0.422077 0.0871,-0.630819 0.0256,-0.160183 0.0515,-0.320826 0.0871,-0.476526 0.0246,-0.107524 0.0471,-0.218592 0.0871,-0.314753 0.0233,-0.05598 0.0461,-0.125887 0.0871,-0.14803 0.0277,-0.01498 0.0621,-0.0026 0.0871,0.02122 0.043,0.04101 0.0635,0.121588 0.0871,0.189964 0.0386,0.112078 0.0624,0.234987 0.0874,0.355777 0.035,0.169377 0.0611,0.342789 0.0871,0.515932 0.0331,0.221316 0.0605,0.444556 0.0871,0.667903 0.0319,0.269005 0.06,0.539107 0.0871,0.809365 0.0313,0.312127 0.0596,0.624939 0.0871,0.937894 0.0308,0.350214 0.0592,0.700885 0.0871,1.051669 0.0303,0.382686 0.059,0.765689 0.0871,1.148772 0.03,0.409065 0.0587,0.818351 0.0871,1.227689 0.0297,0.428958 0.0584,0.858079 0.0871,1.287204 0.0295,0.44201 0.0585,0.884101 0.0874,1.326208 0.0293,0.448061 0.058,0.896201 0.0871,1.344294 0.029,0.447058 0.0578,0.894148 0.0871,1.341161 0.0287,0.438942 0.0575,0.877885 0.0871,1.316709 0.0285,0.42389 0.0573,0.847752 0.0871,1.27144 0.0283,0.40211 0.057,0.804161 0.0871,1.205964 0.028,0.37401 0.0566,0.747927 0.0871,1.121492 0.0277,0.339997 0.0562,0.679873 0.0871,1.019234 0.0274,0.30063 0.0556,0.601128 0.0871,0.90081 0.027,0.256592 0.055,0.512985 0.0874,0.768139 0.0265,0.208585 0.0535,0.417141 0.0871,0.623342 0.0256,0.157594 0.0513,0.315711 0.0871,0.468645 0.0245,0.104866 0.0468,0.213632 0.0871,0.306466 0.0232,0.05354 0.0468,0.120848 0.0871,0.139543 0.0284,0.0132 0.0625,-0.004 0.0871,-0.02961 0.0431,-0.04493 0.0635,-0.127407 0.0871,-0.19835 0.0383,-0.115144 0.0621,-0.240551 0.0871,-0.363963 0.0348,-0.1721 0.0611,-0.34802 0.0871,-0.523712 0.0331,-0.223825 0.0608,-0.449471 0.0874,-0.675279 0.032,-0.271263 0.06,-0.543629 0.0871,-0.816135 0.0312,-0.314156 0.0596,-0.628985 0.0871,-0.943957 0.0307,-0.351971 0.0593,-0.704391 0.0871,-1.056923 0.0303,-0.384172 0.0589,-0.768656 0.0871,-1.153219 0.03,-0.410213 0.0586,-0.820643 0.0871,-1.231124 0.0297,-0.429734 0.0585,-0.85962 0.0871,-1.289528 0.0295,-0.442508 0.0581,-0.88513 0.0871,-1.327723 0.0293,-0.44818 0.0582,-0.896396 0.0874,-1.344597 0.0291,-0.446817 0.0577,-0.893678 0.0871,-1.340454 0.0288,-0.438338 0.0575,-0.876674 0.0871,-1.31489 0.0285,-0.42295 0.0573,-0.845869 0.0871,-1.268612 0.0282,-0.400866 0.057,-0.801671 0.0871,-1.202225 0.028,-0.372462 0.0566,-0.744832 0.0871,-1.116843 0.0277,-0.33815 0.0562,-0.676175 0.0871,-1.013677 0.0274,-0.298515 0.0556,-0.59688 0.0871,-0.894443 0.0269,-0.254264 0.0547,-0.508392 0.0871,-0.761168 0.0264,-0.206145 0.0537,-0.412193 0.0874,-0.615865 0.0255,-0.15496 0.0512,-0.31053 0.0871,-0.460661 0.0245,-0.102246 0.0464,-0.208793 0.0871,-0.298284 0.0232,-0.05114 0.0475,-0.115683 0.0871,-0.131054 0.0293,-0.01139 0.0629,0.01061 0.0871,0.03809 0.0431,0.04888 0.0634,0.133234 0.0871,0.206736 0.0381,0.118171 0.0621,0.24601 0.0871,0.372046 0.0346,0.174816 0.0611,0.353294 0.0871,0.531595 0.033,0.226274 0.0604,0.454366 0.0871,0.682554 0.0319,0.273533 0.0602,0.54807 0.0874,0.822804 0.0313,0.316173 0.0596,0.633033 0.0871,0.950019 0.0307,0.353729 0.0591,0.707898 0.0871,1.062178 0.0303,0.385591 0.0589,0.771488 0.0871,1.157462 0.03,0.411361 0.0586,0.822937 0.0871,1.234561 0.0297,0.430544 0.0584,0.861238 0.0871,1.291952 0.0295,0.442948 0.0582,0.885998 0.0871,1.329035 0.0292,0.448309 0.058,0.896677 0.0871,1.345001 0.029,0.446558 0.0577,0.893151 0.0871,1.339647 0.0288,0.437743 0.0578,0.875455 0.0874,1.313071 0.0285,0.422002 0.0572,0.843986 0.0871,1.265782 0.0282,0.39959 0.057,0.799116 0.0871,1.198387 0.028,0.370848 0.0566,0.741602 0.0871,1.111992 0.0277,0.336301 0.0561,0.672479 0.0871,1.00812 0.0273,0.296434 0.0555,0.592717 0.0871,0.888179 0.0269,0.25195 0.0547,0.50375 0.0871,0.754196 0.0263,0.203587 0.0534,0.407138 0.0871,0.608186 0.0256,0.152388 0.0509,0.305471 0.0871,0.452778 0.0245,0.09964 0.0464,0.203905 0.0874,0.289998 0.0232,0.04876 0.0484,0.110466 0.0871,0.122667 0.0301,0.0095 0.0631,-0.01726 0.0871,-0.04668 0.043,-0.05283 0.0634,-0.138971 0.0871,-0.215022 0.0379,-0.121197 0.062,-0.251535 0.0871,-0.38023 0.0345,-0.177496 0.0611,-0.358509 0.0871,-0.539374 0.0329,-0.228735 0.0605,-0.459219 0.0871,-0.689831 0.0319,-0.27576 0.0599,-0.552548 0.0871,-0.829472 0.0312,-0.318195 0.0598,-0.637001 0.0874,-0.955981 0.0308,-0.35544 0.0592,-0.711337 0.0871,-1.06733 0.0303,-0.387044 0.0589,-0.774387 0.0871,-1.161808 0.03,-0.412476 0.0586,-0.825162 0.0871,-1.237895 0.0297,-0.431356 0.0584,-0.862858 0.0871,-1.294378 0.0294,-0.443354 0.0582,-0.886807 0.0871,-1.330248 0.0292,-0.448377 0.0579,-0.896813 0.0871,-1.345204 0.029,-0.446289 0.0577,-0.892603 0.0871,-1.338837 0.0288,-0.43713 0.0574,-0.874262 0.0871,-1.311252 0.0285,-0.421044 0.0575,-0.842027 0.0874,-1.262853 0.0283,-0.398269 0.057,-0.796491 0.0871,-1.194444 0.0279,-0.369269 0.0566,-0.738443 0.0871,-1.107244 0.0277,-0.334421 0.0561,-0.668714 0.0871,-1.002462 0.0273,-0.294318 0.0555,-0.588487 0.0871,-0.881814 0.0268,-0.249604 0.0546,-0.499057 0.0871,-0.747121 0.0263,-0.201115 0.0533,-0.402209 0.0871,-0.600708 0.0255,-0.149774 0.0508,-0.300281 0.0871,-0.444797 0.0243,-0.09693 0.0459,-0.199077 0.0871,-0.281612 0.0233,-0.04654 0.0495,-0.105083 0.0874,-0.114281 0.031,-0.0075 0.0634,0.0237 0.0871,0.05507 0.043,0.05672 0.0633,0.144767 0.0871,0.223408 0.0376,0.124208 0.0619,0.257058 0.0871,0.388415 0.0344,0.180142 0.061,0.363655 0.0871,0.547054 0.0328,0.231191 0.0604,0.464085 0.0871,0.697106 0.0318,0.278 0.0599,0.556993 0.0871,0.836142 0.0312,0.32018 0.0595,0.640992 0.0871,0.961941 0.0307,0.357177 0.0591,0.714787 0.0871,1.072485 0.0303,0.388472 0.0591,0.777209 0.0874,1.166051 0.03,0.413546 0.0586,0.82732 0.0871,1.241128 0.0297,0.432133 0.0584,0.86441 0.0871,1.296702 0.0294,0.443762 0.0582,0.887617 0.0871,1.331461 0.0292,0.448446 0.0579,0.896949 0.0871,1.345406 0.0289,0.445987 0.0577,0.891999 0.0871,1.337927 0.0287,0.436492 0.0575,0.872976 0.0871,1.309332 0.0284,0.420061 0.0572,0.840086 0.0871,1.259923 0.0282,0.397001 0.0568,0.793945 0.0871,1.190604 0.028,0.367668 0.0568,0.735206 0.0874,1.102395 0.0277,0.332529 0.0561,0.664949 0.0871,0.996802 0.0273,0.292171 0.0554,0.584189 0.0871,0.875347 0.0268,0.247258 0.0546,0.494367 0.0871,0.740048 0.0262,0.19861 0.0532,0.397219 0.087,0.593131 0.0254,0.147127 0.0506,0.29506 0.0871,0.436713 0.0243,0.09432 0.0456,0.194332 0.0871,0.273426 0.0232,0.04418 0.0502,0.09936 0.0871,0.105794 0.0321,0.0056 0.0637,-0.03009 0.0874,-0.06356 0.0428,-0.06055 0.0632,-0.150551 0.0871,-0.231796 0.0374,-0.127137 0.0619,-0.262439 0.0871,-0.396396 0.0343,-0.18281 0.061,-0.368868 0.0871,-0.554835 0.0328,-0.233649 0.0604,-0.468948 0.0871,-0.704381 0.0317,-0.280206 0.0599,-0.561377 0.0871,-0.842709 0.0311,-0.322177 0.0595,-0.644973 0.0871,-0.967903 0.0306,-0.358867 0.0592,-0.71815 0.0871,-1.077537 0.0303,-0.389881 0.0588,-0.780059 0.0871,-1.170296 0.03,-0.414645 0.0589,-0.829467 0.0874,-1.244361 0.0297,-0.432866 0.0584,-0.865893 0.0871,-1.298925 0.0294,-0.444167 0.0582,-0.888428 0.0871,-1.332674 0.0292,-0.448514 0.0579,-0.897085 0.0871,-1.345607 0.0289,-0.445653 0.0577,-0.891328 0.0871,-1.336917 0.0286,-0.43582 0.0575,-0.871632 0.0871,-1.307312 0.0284,-0.419085 0.0572,-0.838134 0.0871,-1.256991 0.0282,-0.395657 0.0569,-0.791245 0.0871,-1.186565 0.0279,-0.366042 0.0564,-0.731997 0.0871,-1.097542 0.0277,-0.330636 0.0563,-0.661107 0.0874,-0.991043 0.0273,-0.290045 0.0554,-0.579958 0.0871,-0.868981 0.0268,-0.244913 0.0545,-0.489679 0.0871,-0.732976 0.0263,-0.196073 0.0532,-0.392158 0.0871,-0.585451 0.0254,-0.144515 0.0505,-0.289926 0.0871,-0.42873 0.0242,-0.0917 0.0452,-0.18963 0.0871,-0.265142 0.0232,-0.04192 0.0512,-0.09358 0.0871,-0.0973 0.033,-0.0034 0.0637,0.03649 0.0871,0.07195 0.0426,0.06441 0.0631,0.156341 0.0871,0.240182 0.0372,0.130129 0.0621,0.267928 0.0874,0.404582 0.0343,0.185385 0.061,0.373946 0.0871,0.562413 0.0327,0.23607 0.0603,0.473744 0.0871,0.711554 0.0317,0.282445 0.0599,0.565834 0.087,0.849378 0.0311,0.324141 0.0595,0.648886 0.0871,0.973765 0.0306,0.360556 0.0592,0.721521 0.0871,1.08259 0.0302,0.391265 0.0588,0.782814 0.0871,1.174438 0.0299,0.415717 0.0586,0.831635 0.0871,1.247594 0.0297,0.433585 0.0583,0.867317 0.0871,1.301047 0.0295,0.444582 0.0584,0.88923 0.0874,1.333886 0.0292,0.448508 0.0579,0.897087 0.0871,1.345607 0.0289,0.445351 0.0577,0.890724 0.0871,1.336009 0.0286,0.435148 0.0575,0.870287 0.087,1.305291 0.0285,0.418043 0.0572,0.836048 0.0871,1.253859 0.0282,0.394345 0.0569,0.788621 0.0871,1.182622 0.0279,0.364396 0.0565,0.728691 0.0871,1.092593 0.0276,0.328709 0.0559,0.657299 0.0871,0.985283 0.0273,0.287922 0.0557,0.575651 0.0874,0.862515 0.0268,0.242522 0.0545,0.484923 0.0871,0.725801 0.0262,0.19357 0.053,0.38717 0.0871,0.577872 0.0253,0.141872 0.0502,0.284736 0.087,0.420649 0.0241,0.08909 0.045,0.184982 0.0871,0.256853 0.0233,0.03971 0.0521,0.08763 0.0871,0.08881 0.0339,0.0012 0.0637,-0.04286 0.0871,-0.08044 0.0424,-0.06817 0.063,-0.162013 0.0871,-0.248468 0.037,-0.133003 0.0617,-0.273349 0.0871,-0.412565 0.0342,-0.18809 0.0612,-0.379138 0.0874,-0.570193 0.0327,-0.238471 0.0603,-0.47854 0.0871,-0.718728 0.0317,-0.284649 0.0599,-0.57022 0.0871,-0.855947 0.031,-0.326068 0.0595,-0.652729 0.0871,-0.979524 0.0306,-0.362245 0.0592,-0.724892 0.0871,-1.087641 0.0302,-0.392616 0.0588,-0.785512 0.0871,-1.178479 0.0299,-0.416798 0.0586,-0.833793 0.0871,-1.250828 0.0296,-0.434295 0.0584,-0.868727 0.0871,-1.303169 0.0294,-0.444947 0.0581,-0.88999 0.0871,-1.334998 0.0292,-0.448527 0.0582,-0.897081 0.0874,-1.345608 0.0289,-0.445008 0.0577,-0.890051 0.0871,-1.334998 0.0286,-0.434442 0.0574,-0.868874 0.0871,-1.303169 0.0284,-0.417001 0.0572,-0.833962 0.0871,-1.250726 0.0282,-0.393001 0.0568,-0.78593 0.0871,-1.178581 0.0279,-0.362749 0.0565,-0.725396 0.0871,-1.087641 0.0276,-0.326795 0.056,-0.653456 0.0871,-0.979524 0.0272,-0.285726 0.0554,-0.571298 0.0871,-0.855947 0.0268,-0.240188 0.0544,-0.480257 0.0871,-0.718728 0.0262,-0.191055 0.0532,-0.382103 0.0874,-0.570193 0.0254,-0.139215 0.0501,-0.279561 0.0871,-0.412564 0.024,-0.08646 0.0447,-0.180304 0.0871,-0.248468 0.0234,-0.03757 0.0532,-0.08161 0.0871,-0.08044 0.0349,0.0012 0.0638,0.04918 0.0871,0.08893 0.0421,0.07186 0.0629,0.16769 0.0871,0.256752 0.0368,0.135909 0.0617,0.278776 0.0871,0.420649 0.0341,0.190702 0.0609,0.384302 0.0871,0.577872 0.0326,0.240911 0.0602,0.483349 0.0871,0.725903 0.0317,0.286831 0.0601,0.574524 0.0874,0.862413 0.0311,0.327984 0.0595,0.656576 0.0871,0.985283 0.0306,0.363902 0.0591,0.728198 0.0871,1.092593 0.0302,0.394002 0.0588,0.788277 0.0871,1.182622 0.0299,0.417813 0.0586,0.835816 0.0871,1.253859 0.0296,0.435005 0.0584,0.870144 0.0871,1.305291 0.0293,0.445285 0.0581,0.890658 0.0871,1.336009 0.0292,0.44852 0.0579,0.89709 0.0871,1.345608 0.0289,0.444647 0.0576,0.88932 0.0871,1.333886 0.0288,0.433746 0.0577,0.867453 0.0874,1.301046 0.0284,0.415952 0.0571,0.831877 0.087,1.247595 0.0282,0.391623 0.0568,0.783173 0.0871,1.174438 0.0279,0.361101 0.0564,0.722101 0.0871,1.082689 0.0275,0.324848 0.056,0.649558 0.0871,0.973665 0.0272,0.283545 0.0553,0.566933 0.0871,0.849378 0.0267,0.237811 0.0544,0.475484 0.0871,0.711554 0.0261,0.188501 0.0528,0.3771 0.0871,0.562514 0.0253,0.136622 0.0502,0.274383 0.0874,0.404481 0.024,0.08384 0.0444,0.175772 0.0871,0.240183 0.0234,0.03545 0.0541,0.07537 0.0871,0.07195 0.0359,-0.0037 0.0639,-0.05538 0.0871,-0.0973 0.0418,-0.07551 0.0629,-0.173433 0.0871,-0.265141 0.0366,-0.138773 0.0617,-0.284147 0.0871,-0.42863 0.0339,-0.193324 0.0608,-0.389445 0.0871,-0.585551 0.0326,-0.243297 0.0602,-0.488064 0.0871,-0.732976 0.0316,-0.28899 0.0598,-0.578868 0.0871,-0.86888 0.0311,-0.32997 0.0597,-0.660475 0.0874,-0.991145 0.0306,-0.365544 0.0592,-0.7315 0.0871,-1.097542 0.0302,-0.39532 0.0588,-0.790908 0.0871,-1.186564 0.0299,-0.418825 0.0586,-0.837839 0.0871,-1.256891 0.0296,-0.435681 0.0584,-0.871491 0.0871,-1.307311 0.0294,-0.445623 0.0581,-0.891332 0.0871,-1.337019 0.0292,-0.448489 0.0579,-0.897025 0.0871,-1.345506 0.0288,-0.44428 0.0577,-0.888575 0.0871,-1.332776 0.0286,-0.432997 0.0573,-0.86599 0.0871,-1.298823 0.0284,-0.414927 0.0574,-0.829783 0.0874,-1.244462 0.0282,-0.390237 0.0568,-0.780415 0.0871,-1.170296 0.0279,-0.359387 0.0564,-0.71867 0.0871,-1.077537 0.0275,-0.32293 0.0559,-0.645726 0.0871,-0.967903 0.0272,-0.281332 0.0553,-0.562502 0.0871,-0.842709 0.0267,-0.235433 0.0543,-0.470733 0.0871,-0.704381 0.0261,-0.185933 0.0528,-0.371955 0.0871,-0.554734 0.0251,-0.133988 0.0497,-0.269328 0.0871,-0.396497 0.0239,-0.08125 0.0443,-0.171245 0.0871,-0.231796 0.0237,-0.03348 0.0553,-0.06916 0.0874,-0.06356 0.0368,0.0064 0.0639,0.06162 0.0871,0.105794 0.0415,0.0791 0.0628,0.179093 0.0871,0.273426 0.0364,0.141653 0.0616,0.289586 0.0871,0.436713 0.0339,0.195912 0.0608,0.394521 0.0871,0.593131 0.0325,0.245681 0.0603,0.49279 0.0871,0.740048 0.0316,0.291191 0.0598,0.583243 0.0871,0.875448 0.031,0.331819 0.0594,0.664196 0.0871,0.996702 0.0305,0.367211 0.059,0.734813 0.0871,1.102494 0.0303,0.396645 0.0592,0.793528 0.0874,1.190505 0.0299,0.419827 0.0586,0.839861 0.0871,1.259922 0.0296,0.436357 0.0583,0.872841 0.0871,1.309332 0.0293,0.445928 0.0581,0.89194 0.0871,1.337928 0.0292,0.448457 0.0579,0.896959 0.0871,1.345405 0.0288,0.443877 0.0577,0.887768 0.0871,1.331562 0.0286,0.43226 0.0574,0.864502 0.0871,1.296601 0.0284,0.413808 0.0571,0.827582 0.0871,1.241128 0.0282,0.388876 0.0571,0.777648 0.0874,1.166153 0.0279,0.357699 0.0564,0.715308 0.0871,1.072484 0.0275,0.320916 0.0559,0.641693 0.0871,0.961841 0.0272,0.279149 0.0552,0.55814 0.0871,0.836142 0.0267,0.233055 0.0542,0.465982 0.0871,0.697206 0.0261,0.1834 0.0526,0.366915 0.0871,0.547054 0.0251,0.131324 0.0495,0.264137 0.0871,0.388314 0.0238,0.07864 0.0441,0.16669 0.0871,0.223409 0.0237,0.03138 0.056,0.0626 0.0871,0.05507 0.0379,-0.0092 0.0641,-0.06767 0.0874,-0.114181 0.0413,-0.08255 0.0627,-0.184748 0.0871,-0.281712 0.0362,-0.144488 0.0615,-0.294953 0.0871,-0.444695 0.0337,-0.198497 0.0608,-0.399594 0.0871,-0.600708 0.0325,-0.248097 0.0602,-0.497586 0.0871,-0.747223 0.0316,-0.293295 0.0598,-0.587427 0.0871,-0.881714 0.031,-0.333746 0.0594,-0.66804 0.0871,-1.002461 0.0305,-0.368801 0.059,-0.737973 0.0871,-1.107243 0.0301,-0.397986 0.0587,-0.796243 0.0871,-1.194546 0.0299,-0.420827 0.0588,-0.841809 0.0874,-1.262853 0.0297,-0.43699 0.0583,-0.874122 0.0871,-1.311252 0.0293,-0.446199 0.0581,-0.89248 0.0871,-1.338736 0.0291,-0.448425 0.0579,-0.896894 0.0871,-1.345305 0.0288,-0.44344 0.0577,-0.886893 0.0871,-1.330248 0.0286,-0.43152 0.0574,-0.863021 0.0871,-1.294378 0.0284,-0.4127 0.0571,-0.825351 0.0871,-1.237793 0.0281,-0.38742 0.0568,-0.774764 0.0871,-1.161808 0.0279,-0.356027 0.0563,-0.711958 0.0871,-1.067432 0.0275,-0.318981 0.0562,-0.637786 0.0874,-0.955981 0.0272,-0.276924 0.0551,-0.553711 0.0871,-0.829472 0.0266,-0.23061 0.0542,-0.461097 0.0871,-0.68983 0.026,-0.180834 0.0524,-0.361809 0.0871,-0.539273 0.025,-0.128694 0.0492,-0.259028 0.0871,-0.380231 0.0237,-0.07608 0.044,-0.162297 0.0871,-0.215123 0.0239,-0.02941 0.057,-0.05609 0.0871,-0.04658 0.0386,0.01222 0.0639,0.07389 0.0871,0.122668 0.0409,0.08609 0.0626,0.190415 0.0871,0.289998 0.0361,0.147331 0.0618,0.300295 0.0874,0.452677 0.0337,0.201054 0.0608,0.404668 0.0871,0.608288 0.0324,0.250447 0.0602,0.502246 0.0871,0.754196 0.0315,0.295428 0.0597,0.591676 0.0871,0.888077 0.0309,0.335641 0.0594,0.671819 0.0871,1.00812 0.0305,0.370423 0.059,0.741211 0.0871,1.112094 0.0301,0.39927 0.0588,0.798796 0.0871,1.198385 0.0299,0.421797 0.0585,0.843782 0.0871,1.265783 0.0296,0.437616 0.0586,0.875329 0.0874,1.313072 0.0294,0.446496 0.0581,0.893088 0.0871,1.339645 0.0291,0.448292 0.0579,0.896626 0.0871,1.344901 0.0289,0.443037 0.0576,0.886087 0.0871,1.329035 0.0286,0.430714 0.0574,0.861408 0.0871,1.291953 0.0284,0.411623 0.0571,0.8232 0.0871,1.23456 0.0281,0.385976 0.0568,0.771871 0.0871,1.157462 0.0278,0.35428 0.0564,0.708449 0.0871,1.062178 0.0275,0.316986 0.0557,0.633846 0.0871,0.950019 0.0272,0.274735 0.0554,0.54927 0.0874,0.822804 0.0266,0.228222 0.0541,0.456349 0.0871,0.682656 0.026,0.178269 0.0524,0.35671 0.0871,0.531493 0.025,0.126035 0.049,0.253875 0.0871,0.372046 0.0237,0.0735 0.044,0.157829 0.0871,0.206736 0.0242,0.0275 0.0578,0.04957 0.0871,0.03819 0.0395,-0.01537 0.0639,-0.08 0.0871,-0.131154 0.0406,-0.0895 0.0626,-0.196038 0.0871,-0.298284 0.0359,-0.150131 0.0614,-0.305701 0.0871,-0.460661 0.0337,-0.203639 0.061,-0.409652 0.0874,-0.615765 0.0324,-0.252774 0.0602,-0.506903 0.0871,-0.761166 0.0315,-0.297597 0.0597,-0.595996 0.0871,-0.894545 0.0309,-0.337502 0.0594,-0.675527 0.0871,-1.013677 0.0305,-0.372011 0.059,-0.744381 0.0871,-1.116843 0.0301,-0.40052 0.0588,-0.801292 0.0871,-1.202124 0.0298,-0.422776 0.0585,-0.845729 0.0871,-1.268713 0.0295,-0.438216 0.0583,-0.876551 0.0871,-1.31489 0.0293,-0.446742 0.0581,-0.89357 0.0871,-1.340353 0.0292,-0.448234 0.0581,-0.896485 0.0874,-1.344697 0.0289,-0.442561 0.0576,-0.885147 0.0871,-1.327623 0.0286,-0.42994 0.0573,-0.859861 0.0871,-1.289629 0.0283,-0.41048 0.0571,-0.820911 0.0871,-1.231124 0.0281,-0.384563 0.0568,-0.769047 0.0871,-1.153218 0.0278,-0.352532 0.0564,-0.704953 0.0871,-1.056925 0.0275,-0.31497 0.0559,-0.6298 0.0871,-0.943956 0.0271,-0.272506 0.0551,-0.544855 0.0871,-0.816135 0.0266,-0.225757 0.054,-0.451421 0.0871,-0.675178 0.026,-0.17576 0.0525,-0.351666 0.0874,-0.523813 0.025,-0.123396 0.0487,-0.248818 0.0871,-0.363962 0.0236,-0.07095 0.044,-0.153418 0.0871,-0.198351 0.0245,-0.02562 0.0586,-0.0428 0.0871,-0.02961 0.0403,0.0187 0.0638,0.08601 0.0871,0.139543 0.0403,0.09283 0.0625,0.2016 0.0871,0.306466 0.0358,0.152934 0.0614,0.31105 0.0871,0.468644 0.0335,0.206201 0.0606,0.414757 0.0871,0.623342 0.0323,0.255154 0.0604,0.511548 0.0874,0.768139 0.0315,0.299682 0.0597,0.60018 0.0871,0.900811 0.0309,0.33936 0.0593,0.679236 0.0871,1.019233 0.0304,0.373565 0.059,0.747483 0.0871,1.121492 0.0301,0.401837 0.0588,0.803922 0.0871,1.206065 0.0298,0.423655 0.0585,0.847482 0.0871,1.271339 0.0296,0.438825 0.0583,0.877767 0.087,1.316709 0.0293,0.447014 0.0581,0.894103 0.0871,1.341162 0.0291,0.448093 0.0578,0.896233 0.0871,1.344293 0.0289,0.442141 0.0579,0.884265 0.0874,1.326308 0.0287,0.429093 0.0573,0.85818 0.0871,1.287104 0.0283,0.409337 0.0571,0.818624 0.0871,1.227689 0.0281,0.383083 0.0568,0.766086 0.0871,1.148772 0.0278,0.350785 0.0563,0.701456 0.0871,1.051669 0.0275,0.31299 0.0557,0.625837 0.0871,0.937996 0.0271,0.270225 0.0551,0.540291 0.0871,0.809264 0.0266,0.223346 0.054,0.446586 0.0871,0.667902 0.0259,0.173143 0.0521,0.346557 0.0871,0.515933 0.0249,0.120789 0.0487,0.243698 0.0874,0.355777 0.0236,0.06838 0.0441,0.148954 0.0871,0.189963 0.0249,0.0238 0.0594,0.03618 0.0871,0.02122 0.041,-0.02212 0.0638,-0.09198 0.0871,-0.147929 0.04,-0.09615 0.0625,-0.207227 0.0871,-0.314753 0.0356,-0.155731 0.0614,-0.316412 0.0871,-0.476626 0.0334,-0.208743 0.0606,-0.419747 0.0871,-0.63082 0.0322,-0.257454 0.0601,-0.516153 0.0871,-0.77501 0.0314,-0.30183 0.0597,-0.604439 0.0871,-0.907176 0.0309,-0.341197 0.0596,-0.682866 0.0874,-1.02469 0.0305,-0.375108 0.059,-0.750585 0.0871,-1.126139 0.0301,-0.403086 0.0588,-0.806416 0.0871,-1.209805 0.0298,-0.424599 0.0585,-0.849369 0.087,-1.274168 0.0296,-0.439365 0.0583,-0.878845 0.0871,-1.318326 0.0293,-0.44725 0.058,-0.894575 0.087,-1.341868 0.0291,-0.44796 0.0579,-0.895958 0.0871,-1.343891 0.0288,-0.441628 0.0576,-0.883262 0.0871,-1.324791 0.0286,-0.428294 0.0573,-0.856574 0.0871,-1.284678 0.0284,-0.408171 0.0573,-0.816261 0.0874,-1.224152 0.0281,-0.381597 0.0567,-0.763127 0.0871,-1.144328 0.0278,-0.349036 0.0563,-0.697959 0.0871,-1.046414 0.0275,-0.310941 0.0557,-0.621735 0.0871,-0.93183 0.027,-0.268011 0.055,-0.535866 0.0871,-0.802596 0.0265,-0.220905 0.0539,-0.441709 0.0871,-0.660526 0.0259,-0.170549 0.052,-0.341371 0.087,-0.508051 0.0248,-0.118109 0.0482,-0.238639 0.0871,-0.347594 0.0235,-0.06587 0.0443,-0.144495 0.0871,-0.181576 0.0254,-0.02207 0.0603,-0.02953 0.0874,-0.01273 0.0415,0.02573 0.0637,0.09792 0.0871,0.156316 0.0397,0.09942 0.0624,0.212851 0.0871,0.323038 0.0354,0.158458 0.0613,0.321633 0.0871,0.484406 0.0334,0.211281 0.0606,0.424752 0.0871,0.638298 0.0321,0.259832 0.0601,0.520879 0.0871,0.782082 0.0314,0.303898 0.0597,0.608545 0.0871,0.91334 0.0308,0.343012 0.0593,0.686529 0.0871,1.030147 0.0304,0.376682 0.0593,0.753676 0.0874,1.130788 0.0301,0.404292 0.0587,0.808843 0.087,1.21344 0.0298,0.425513 0.0585,0.851191 0.0871,1.276898 0.0296,0.43994 0.0582,0.879992 0.0871,1.320043 0.0293,0.447422 0.0581,0.894914 0.0871,1.342374 0.0291,0.447827 0.0578,0.895691 0.0871,1.343486 0.0288,0.441125 0.0576,0.882255 0.0871,1.323276 0.0285,0.427454 0.0574,0.854884 0.0871,1.282152 0.0283,0.406985 0.057,0.813925 0.0871,1.220616 0.0281,0.380135 0.057,0.760158 0.0874,1.139881 0.0278,0.347247 0.0563,0.694396 0.0871,1.041059 0.0274,0.308893 0.0557,0.617639 0.0871,0.925668 0.027,0.26573 0.055,0.531303 0.0871,0.795723 0.0265,0.218464 0.0539,0.436832 0.087,0.65315 0.0258,0.167989 0.0519,0.336294 0.0871,0.500272 0.0248,0.115464 0.0479,0.233592 0.0871,0.339407 0.0234,0.06336 0.0446,0.139973 0.0871,0.17319 0.0259,0.02023 0.0607,0.02266 0.0871,0.0042 0.0421,-0.02943 0.0639,-0.103866 0.0874,-0.164804 0.0395,-0.102587 0.0623,-0.218399 0.0871,-0.331223 0.0353,-0.161237 0.0613,-0.326994 0.0871,-0.49239 0.0333,-0.213783 0.0606,-0.429685 0.0871,-0.645673 0.0321,-0.262144 0.0601,-0.525472 0.0871,-0.788954 0.0313,-0.305964 0.0597,-0.61266 0.0871,-0.919504 0.0308,-0.344838 0.0593,-0.690162 0.0871,-1.035603 0.0304,-0.378193 0.059,-0.756721 0.0871,-1.135334 0.0301,-0.405518 0.0586,-0.81128 0.0871,-1.21708 0.0298,-0.426398 0.0588,-0.852935 0.0874,-1.279524 0.0295,-0.440472 0.0582,-0.881072 0.0871,-1.32166 0.0293,-0.447624 0.0581,-0.895319 0.0871,-1.34298 0.029,-0.447659 0.0578,-0.895355 0.087,-1.342979 0.0288,-0.440622 0.0575,-0.881256 0.0871,-1.321761 0.0286,-0.426589 0.0575,-0.853126 0.0874,-1.279524 0.0283,-0.405767 0.057,-0.811494 0.0871,-1.21698 0.0281,-0.378612 0.0567,-0.75714 0.0871,-1.135332 0.0277,-0.345475 0.0562,-0.690833 0.0871,-1.035705 0.0274,-0.306844 0.0557,-0.61354 0.0871,-0.919504 0.027,-0.263449 0.055,-0.526742 0.0871,-0.788853 0.0265,-0.216021 0.0538,-0.431958 0.087,-0.645774 0.0258,-0.165396 0.0517,-0.331152 0.0871,-0.49239 0.0247,-0.112824 0.0476,-0.228644 0.0871,-0.331223 0.0235,-0.06091 0.0453,-0.135279 0.0874,-0.164703 0.0264,-0.01845 0.0612,-0.01609 0.0871,0.0041 0.0424,0.03319 0.0637,0.109825 0.0871,0.17319 0.0391,0.105815 0.0623,0.223943 0.0871,0.339408 0.0352,0.163977 0.0613,0.332282 0.0871,0.500271 0.0332,0.216318 0.0606,0.434686 0.0871,0.65315 0.0321,0.26442 0.0601,0.529994 0.0871,0.795723 0.0313,0.308063 0.0597,0.616843 0.0871,0.925769 0.0308,0.34663 0.0592,0.693745 0.0871,1.040959 0.0304,0.379722 0.0592,0.759745 0.0874,1.139881 0.0301,0.406724 0.0587,0.813698 0.0871,1.220716 0.0297,0.427235 0.0584,0.854631 0.0871,1.282051 0.0295,0.441021 0.0582,0.882152 0.0871,1.323276 0.0293,0.447796 0.058,0.895659 0.0871,1.343486 0.029,0.44746 0.0578,0.894952 0.0871,1.342374 0.0288,0.440084 0.0575,0.880172 0.0871,1.320144 0.0285,0.425673 0.0573,0.851318 0.0871,1.276797 0.0283,0.404597 0.057,0.809148 0.0871,1.21344 0.0281,0.377112 0.057,0.754106 0.0874,1.130788 0.0278,0.343651 0.0562,0.687202 0.0871,1.030248 0.0274,0.304795 0.0556,0.609443 0.087,0.91334 0.027,0.26117 0.0549,0.522183 0.0871,0.781981 0.0265,0.213546 0.0537,0.427017 0.0871,0.638298 0.0257,0.162772 0.0516,0.32595 0.0871,0.484406 0.0246,0.110187 0.0473,0.223612 0.0871,0.323038 0.0234,0.0584 0.0455,0.130584 0.0871,0.156316 0.027,0.01674 0.0617,0.0093 0.0871,-0.01263 0.0428,-0.03705 0.0639,-0.11565 0.0874,-0.181577 0.0389,-0.108901 0.0622,-0.229483 0.0871,-0.347592 0.035,-0.166713 0.0612,-0.337571 0.0871,-0.508153 0.0332,-0.218818 0.0606,-0.439621 0.0871,-0.660526 0.032,-0.26673 0.06,-0.534584 0.0871,-0.802596 0.0313,-0.310095 0.0595,-0.620889 0.087,-0.93183 0.0308,-0.348422 0.0593,-0.69731 0.0871,-1.046314 0.0304,-0.381199 0.0589,-0.76273 0.0871,-1.144327 0.0301,-0.407925 0.059,-0.816049 0.0874,-1.224253 0.0298,-0.428104 0.0584,-0.856384 0.0871,-1.284678 0.0295,-0.441528 0.0582,-0.883163 0.0871,-1.324791 0.0293,-0.447933 0.058,-0.895931 0.0871,-1.343891 0.029,-0.447259 0.0578,-0.89455 0.0871,-1.341767 0.0288,-0.439513 0.0575,-0.879029 0.087,-1.318427 0.0285,-0.424799 0.0573,-0.849569 0.0871,-1.274168 0.0283,-0.403355 0.057,-0.80665 0.0871,-1.209703 0.028,-0.375588 0.0566,-0.7511 0.0871,-1.126241 0.0277,-0.341824 0.0565,-0.683493 0.0874,-1.02469 0.0274,-0.302704 0.0557,-0.605278 0.0871,-0.907075 0.027,-0.25889 0.0548,-0.517623 0.0871,-0.775111 0.0265,-0.211073 0.0536,-0.422078 0.0871,-0.63082 0.0257,-0.160182 0.0515,-0.320825 0.0871,-0.476525 0.0246,-0.107525 0.0471,-0.218592 0.0871,-0.314754 0.0233,-0.05598 0.0461,-0.125886 0.0871,-0.148029 0.0277,-0.01498 0.0621,-0.0026 0.0871,0.02122 0.043,0.04101 0.0635,0.121588 0.0871,0.189963 0.0386,0.112079 0.0624,0.234988 0.0874,0.355777 0.035,0.169376 0.0611,0.34279 0.0871,0.515933 0.0331,0.221316 0.0605,0.444556 0.0871,0.667902 0.0319,0.269006 0.06,0.539108 0.0871,0.809366 0.0313,0.312126 0.0596,0.624938 0.0871,0.937894 0.0308,0.350213 0.0592,0.700884 0.0871,1.051669 0.0303,0.382686 0.059,0.765689 0.0871,1.148772 0.03,0.409065 0.0587,0.818352 0.0871,1.227689 0.0297,0.428958 0.0584,0.858078 0.0871,1.287204 0.0295,0.44201 0.0585,0.884101 0.0874,1.326208 0.0293,0.44806 0.058,0.8962 0.0871,1.344293 0.029,0.447059 0.0578,0.894148 0.0871,1.341162 0.0287,0.438942 0.0575,0.877885 0.0871,1.316709 0.0285,0.423891 0.0573,0.847752 0.0871,1.27144 0.0283,0.40211 0.057,0.804161 0.0871,1.205964 0.028,0.374009 0.0566,0.747927 0.0871,1.121492 0.0277,0.339997 0.0562,0.679873 0.0871,1.019234 0.0274,0.300631 0.0555,0.601128 0.0871,0.90081 0.027,0.256591 0.055,0.512985 0.0874,0.768139 0.0264,0.208585 0.0535,0.417141 0.0871,0.623342 0.0256,0.157594 0.0513,0.31571 0.0871,0.468644 0.0245,0.104867 0.0468,0.213634 0.087,0.306466 0.0232,0.05354 0.0468,0.120849 0.0871,0.139543 0.0285,0.0132 0.0625,-0.004 0.0871,-0.02961 0.0431,-0.04493 0.0635,-0.127408 0.0871,-0.198351 0.0383,-0.115143 0.062,-0.24055 0.0871,-0.363962 0.0348,-0.172099 0.0611,-0.34802 0.0871,-0.523712 0.0331,-0.223825 0.0608,-0.449471 0.0874,-0.675279 0.0321,-0.271263 0.06,-0.543629 0.0871,-0.816135 0.0312,-0.314156 0.0596,-0.628986 0.0871,-0.943956 0.0307,-0.351972 0.0592,-0.704393 0.0871,-1.056925 0.0303,-0.384171 0.0589,-0.768655 0.0871,-1.153218 0.03,-0.410213 0.0586,-0.820644 0.0871,-1.231124 0.0297,-0.429734 0.0584,-0.859621 0.0871,-1.289528 0.0295,-0.442508 0.0581,-0.885129 0.0871,-1.327724 0.0293,-0.448179 0.0583,-0.896395 0.0874,-1.344596 0.0291,-0.446817 0.0577,-0.893679 0.0871,-1.340454 0.0288,-0.438339 0.0575,-0.876674 0.0871,-1.31489 0.0285,-0.42295 0.0573,-0.84587 0.0871,-1.268612 0.0283,-0.400866 0.057,-0.801672 0.0871,-1.202225 0.028,-0.372462 0.0566,-0.744832 0.0871,-1.116843 0.0277,-0.33815 0.0562,-0.676176 0.0871,-1.013677 0.0274,-0.298516 0.0555,-0.59688 0.0871,-0.894443 0.0269,-0.254264 0.0547,-0.508393 0.0871,-0.761168 0.0265,-0.206145 0.0537,-0.412194 0.0874,-0.615865 0.0256,-0.15496 0.0512,-0.31053 0.0871,-0.460661 0.0244,-0.102246 0.0464,-0.208793 0.0871,-0.298284 0.0232,-0.05114 0.0475,-0.115683 0.087,-0.131053 0.0293,-0.01139 0.0629,0.0106 0.0871,0.03809 0.0431,0.04888 0.0634,0.133234 0.0871,0.206736 0.0381,0.118171 0.062,0.24601 0.0871,0.372046 0.0346,0.174815 0.0611,0.353293 0.0871,0.531595 0.033,0.226274 0.0604,0.454365 0.087,0.682554 0.032,0.273533 0.0603,0.548069 0.0874,0.822804 0.0313,0.316173 0.0595,0.633033 0.0871,0.950019 0.0307,0.353729 0.0592,0.707898 0.087,1.062178 0.0303,0.385591 0.0589,0.771487 0.0871,1.157462 0.03,0.41136 0.0586,0.822937 0.0871,1.234561 0.0297,0.430544 0.0584,0.861239 0.0871,1.291952 0.0295,0.442948 0.0582,0.885998 0.0871,1.329035 0.0292,0.448308 0.058,0.896676 0.0871,1.345001 0.0289,0.446558 0.0577,0.893151 0.0871,1.339646 0.0288,0.437744 0.0578,0.875456 0.0874,1.313072 0.0285,0.422001 0.0572,0.843985 0.0871,1.265782 0.0283,0.399589 0.057,0.799116 0.087,1.198386 0.028,0.370849 0.0566,0.741603 0.0871,1.111993 0.0277,0.336301 0.0561,0.672479 0.0871,1.00812 0.0274,0.296434 0.0555,0.592716 0.0871,0.888179 0.0269,0.25195 0.0547,0.50375 0.0871,0.754195 0.0263,0.203588 0.0534,0.407139 0.0871,0.608187 0.0255,0.152388 0.0509,0.305471 0.0871,0.452778 0.0244,0.09964 0.0464,0.203904 0.0874,0.289998 0.0232,0.04876 0.0484,0.110466 0.0871,0.122667 0.0301,0.0095 0.0631,-0.01726 0.0871,-0.04668 0.043,-0.05283 0.0633,-0.138971 0.0871,-0.215022 0.0379,-0.121197 0.062,-0.251535 0.0871,-0.38023 0.0346,-0.177497 0.0611,-0.358508 0.087,-0.539375 0.0329,-0.228734 0.0605,-0.459218 0.0871,-0.68983 0.0319,-0.27576 0.0599,-0.552548 0.0871,-0.829472 0.0312,-0.318195 0.0598,-0.637001 0.0874,-0.955981 0.0308,-0.355441 0.0592,-0.711337 0.0871,-1.067331 0.0303,-0.387042 0.0589,-0.774387 0.087,-1.161807 0.03,-0.412476 0.0586,-0.825162 0.0871,-1.237895 0.0297,-0.431357 0.0584,-0.862858 0.0871,-1.294378 0.0294,-0.443354 0.0582,-0.886808 0.0871,-1.330248 0.0292,-0.448377 0.058,-0.896813 0.0871,-1.345204 0.0289,-0.44629 0.0577,-0.892604 0.0871,-1.338837 0.0287,-0.43713 0.0574,-0.874262 0.0871,-1.311252 0.0285,-0.421044 0.0575,-0.842027 0.0874,-1.262853 0.0283,-0.398269 0.0569,-0.796491 0.0871,-1.194444 0.0279,-0.369269 0.0566,-0.738443 0.0871,-1.107244 0.0277,-0.334421 0.0561,-0.668714 0.0871,-1.002462 0.0273,-0.294319 0.0555,-0.588487 0.0871,-0.881814 0.0268,-0.249604 0.0546,-0.499057 0.0871,-0.747121 0.0263,-0.201115 0.0533,-0.402209 0.0871,-0.600708 0.0255,-0.149774 0.0508,-0.300281 0.0871,-0.444797 0.0243,-0.09693 0.0459,-0.199077 0.0871,-0.281612 0.0233,-0.04654 0.0495,-0.105083 0.0874,-0.114281 0.031,-0.0075 0.0634,0.0237 0.087,0.05507 0.043,0.05672 0.0633,0.144768 0.0871,0.223409 0.0376,0.124208 0.0619,0.257058 0.0871,0.388415 0.0344,0.180142 0.061,0.363655 0.0871,0.547054 0.0328,0.231191 0.0604,0.464084 0.0871,0.697105 0.0318,0.278001 0.0599,0.556993 0.0871,0.836143 0.0312,0.32018 0.0596,0.640992 0.0871,0.961941 0.0306,0.357176 0.0591,0.714787 0.0871,1.072485 0.0303,0.388471 0.0592,0.777209 0.0874,1.166051 0.03,0.413546 0.0586,0.82732 0.0871,1.241128 0.0297,0.432132 0.0584,0.86441 0.0871,1.296702 0.0294,0.443761 0.0582,0.887617 0.0871,1.331461 0.0292,0.448446 0.0579,0.896948 0.0871,1.345405 0.0289,0.445988 0.0577,0.892 0.0871,1.337928 0.0287,0.436492 0.0575,0.872975 0.0871,1.309332 0.0284,0.420061 0.0572,0.840086 0.0871,1.259922 0.0282,0.397001 0.0568,0.793946 0.0871,1.190605 0.028,0.367668 0.0568,0.735207 0.0874,1.102395 0.0277,0.332529 0.0561,0.664949 0.0871,0.996802 0.0273,0.292171 0.0554,0.584189 0.0871,0.875347 0.0268,0.247257 0.0546,0.494367 0.0871,0.740048 0.0263,0.19861 0.0532,0.397219 0.0871,0.593131 0.0254,0.147127 0.0506,0.29506 0.0871,0.436713 0.0243,0.09432 0.0455,0.194332 0.0871,0.273426 0.0232,0.04418 0.0502,0.09936 0.0871,0.105794 0.0321,0.0056 0.0637,-0.03008 0.0874,-0.06356 0.0428,-0.06055 0.0632,-0.150551 0.0871,-0.231796 0.0374,-0.127137 0.0619,-0.262439 0.0871,-0.396396 0.0343,-0.18281 0.061,-0.368869 0.0871,-0.554835 0.0328,-0.233649 0.0604,-0.468948 0.0871,-0.704381 0.0317,-0.280207 0.0599,-0.561377 0.0871,-0.842709 0.0311,-0.322177 0.0596,-0.644973 0.0871,-0.967903 0.0306,-0.358867 0.0592,-0.71815 0.0871,-1.077537 0.0302,-0.389881 0.0588,-0.780059 0.0871,-1.170296 0.03,-0.414645 0.0589,-0.829468 0.0874,-1.244361 0.0297,-0.432867 0.0584,-0.865893 0.0871,-1.298924 0.0294,-0.444168 0.0582,-0.888429 0.0871,-1.332675 0.0292,-0.448515 0.0579,-0.897085 0.0871,-1.345607 0.0289,-0.445653 0.0577,-0.891328 0.087,-1.336917 0.0288,-0.435821 0.0575,-0.871633 0.0871,-1.307312 0.0284,-0.419086 0.0572,-0.838133 0.0871,-1.256992 0.0282,-0.395656 0.0569,-0.791244 0.0871,-1.186564 0.0279,-0.366042 0.0564,-0.731997 0.0871,-1.097542 0.0277,-0.330635 0.0563,-0.661107 0.0874,-0.991043 0.0273,-0.290046 0.0554,-0.579959 0.0871,-0.868981 0.0268,-0.244913 0.0545,-0.48968 0.0871,-0.732977 0.0263,-0.196074 0.0532,-0.392157 0.0871,-0.58545 0.0254,-0.144515 0.0505,-0.289926 0.0871,-0.428731 0.0242,-0.09172 0.0452,-0.189629 0.0871,-0.265141 0.0232,-0.04192 0.0512,-0.09358 0.0871,-0.0973 0.033,-0.0034 0.0636,0.03649 0.087,0.07195 0.0426,0.06442 0.0631,0.156343 0.0871,0.240183 0.0372,0.13013 0.062,0.267928 0.0874,0.404582 0.0343,0.185385 0.061,0.373946 0.0871,0.562413 0.0327,0.23607 0.0603,0.473744 0.0871,0.711554 0.0317,0.282445 0.0599,0.565833 0.0871,0.849378 0.0311,0.324141 0.0595,0.648886 0.0871,0.973765 0.0306,0.360556 0.0592,0.721521 0.0871,1.082589 0.0302,0.391265 0.0588,0.782815 0.0871,1.174438 0.0299,0.415718 0.0586,0.831634 0.0871,1.247595 0.0297,0.433585 0.0583,0.867317 0.0871,1.301046 0.0295,0.444583 0.0584,0.889231 0.0874,1.333886 0.0292,0.448509 0.0579,0.897088 0.087,1.345608 0.029,0.445351 0.0577,0.890724 0.0871,1.336009 0.0286,0.435148 0.0575,0.870286 0.0871,1.305291 0.0284,0.418043 0.0572,0.836047 0.0871,1.253859 0.0282,0.394345 0.0569,0.788621 0.0871,1.182622 0.0279,0.364395 0.0565,0.728691 0.0871,1.092593 0.0276,0.328708 0.0559,0.657299 0.0871,0.985283 0.0273,0.287922 0.0556,0.575651 0.0874,0.862514 0.0268,0.242523 0.0545,0.484924 0.0871,0.725802 0.0262,0.19357 0.053,0.38717 0.0871,0.577872 0.0253,0.141873 0.0503,0.284736 0.0871,0.420649 0.0241,0.0891 0.045,0.184982 0.0871,0.256853 0.0233,0.03971 0.0521,0.08763 0.0871,0.08881 0.0339,0.0012 0.0637,-0.04286 0.0871,-0.08044 0.0423,-0.06817 0.063,-0.162011 0.0871,-0.248468 0.037,-0.133002 0.0617,-0.273349 0.0871,-0.412564 0.0342,-0.18809 0.0612,-0.379138 0.0874,-0.570193 0.0327,-0.238471 0.0603,-0.47854 0.0871,-0.718728 0.0317,-0.284649 0.0599,-0.57022 0.0871,-0.855947 0.0311,-0.326068 0.0595,-0.652729 0.0871,-0.979524 0.0306,-0.362245 0.0591,-0.724892 0.0871,-1.087641 0.0303,-0.392617 0.0588,-0.785512 0.0871,-1.178479 0.0299,-0.416798 0.0586,-0.833793 0.0871,-1.250828 0.0296,-0.434295 0.0584,-0.868727 0.0871,-1.303169 0.0294,-0.444947 0.0581,-0.88999 0.0871,-1.334998 0.0292,-0.448527 0.0582,-0.897081 0.0874,-1.345608 0.029,-0.445008 0.0577,-0.890051 0.0871,-1.334998 0.0287,-0.434442 0.0575,-0.868874 0.0871,-1.303169 0.0284,-0.417001 0.0572,-0.833962 0.0871,-1.250726 0.0282,-0.393001 0.0568,-0.785931 0.0871,-1.178581 0.0279,-0.362749 0.0565,-0.725396 0.0871,-1.087641 0.0276,-0.326795 0.0559,-0.653455 0.0871,-0.979524 0.0272,-0.285726 0.0553,-0.571298 0.0871,-0.855947 0.0268,-0.240188 0.0544,-0.480257 0.0871,-0.718728 0.0262,-0.191055 0.0532,-0.382103 0.0874,-0.570193 0.0253,-0.139216 0.0501,-0.279562 0.0871,-0.412565 0.0241,-0.08646 0.0447,-0.180303 0.0871,-0.248468 0.0234,-0.03757 0.0532,-0.08161 0.0871,-0.08044 0.0349,0.0012 0.0638,0.04918 0.0871,0.08892 0.0421,0.07186 0.063,0.167691 0.0871,0.256753 0.0368,0.135909 0.0617,0.278777 0.0871,0.420649 0.0341,0.190702 0.0609,0.384302 0.0871,0.577872 0.0326,0.240911 0.0602,0.483348 0.0871,0.725903 0.0317,0.28683 0.0601,0.574525 0.0874,0.862413 0.0311,0.327984 0.0595,0.656575 0.0871,0.985283 0.0306,0.363902 0.0591,0.728197 0.0871,1.092593 0.0302,0.394002 0.0588,0.788277 0.0871,1.182622 0.0299,0.417812 0.0586,0.835816 0.0871,1.253859 0.0296,0.435004 0.0584,0.870143 0.087,1.305291 0.0294,0.445285 0.0581,0.890657 0.0871,1.336009 0.0292,0.44852 0.0579,0.89709 0.0871,1.345607 0.0288,0.444648 0.0576,0.889321 0.0871,1.333886 0.0288,0.433747 0.0577,0.867454 0.0874,1.301047 0.0285,0.415951 0.0572,0.831877 0.0871,1.247594 0.0281,0.391624 0.0568,0.783173 0.0871,1.174438 0.0279,0.361102 0.0564,0.722101 0.0871,1.08269 0.0275,0.324847 0.0559,0.649557 0.0871,0.973665 0.0272,0.283544 0.0553,0.566934 0.0871,0.849378 0.0267,0.23781 0.0544,0.475484 0.0871,0.711554 0.0261,0.1885 0.0527,0.377099 0.0871,0.562514 0.0252,0.136622 0.0502,0.274384 0.0874,0.404481 0.024,0.08385 0.0444,0.175771 0.0871,0.240182 0.0234,0.03545 0.0541,0.07537 0.0871,0.07195 0.0359,-0.0037 0.0639,-0.05539 0.0871,-0.0973 0.0418,-0.07551 0.0629,-0.173434 0.0871,-0.265142 0.0366,-0.138772 0.0617,-0.284146 0.0871,-0.42863 0.0339,-0.193322 0.0608,-0.389445 0.0871,-0.585551 0.0326,-0.243298 0.0602,-0.488063 0.0871,-0.732976 0.0316,-0.28899 0.0598,-0.578867 0.0871,-0.86888 0.0311,-0.329969 0.0597,-0.660475 0.0874,-0.991144 0.0306,-0.365546 0.0591,-0.7315 0.0871,-1.097542 0.0302,-0.39532 0.0588,-0.790908 0.0871,-1.186565 0.0299,-0.418823 0.0586,-0.837838 0.087,-1.256891 0.0296,-0.43568 0.0584,-0.87149 0.0871,-1.30731 0.0294,-0.445623 0.0581,-0.891332 0.0871,-1.337019 0.0292,-0.448489 0.0579,-0.897025 0.0871,-1.345507 0.0289,-0.444279 0.0577,-0.888574 0.0871,-1.332774 0.0287,-0.432999 0.0573,-0.865991 0.0871,-1.298825 0.0284,-0.414926 0.0574,-0.829782 0.0874,-1.244461 0.0282,-0.390237 0.0568,-0.780415 0.0871,-1.170296 0.0279,-0.359387 0.0564,-0.71867 0.0871,-1.077537 0.0275,-0.32293 0.0559,-0.645726 0.0871,-0.967903 0.0272,-0.281332 0.0553,-0.562503 0.0871,-0.842709 0.0267,-0.235432 0.0543,-0.470733 0.0871,-0.704381 0.0261,-0.185934 0.0527,-0.371955 0.087,-0.554734 0.0252,-0.133988 0.0497,-0.269328 0.0871,-0.396497 0.0239,-0.08125 0.0443,-0.171246 0.0871,-0.231796 0.0237,-0.03348 0.0553,-0.06916 0.0874,-0.06356 0.0369,0.0064 0.0639,0.06161 0.0871,0.105794 0.0415,0.0791 0.0628,0.179094 0.0871,0.273426 0.0365,0.141653 0.0616,0.289586 0.0871,0.436713 0.0339,0.195912 0.0608,0.394521 0.0871,0.593131 0.0325,0.245681 0.0602,0.492789 0.0871,0.740048 0.0316,0.291191 0.0598,0.583243 0.0871,0.875447 0.031,0.33182 0.0593,0.664197 0.0871,0.996702 0.0305,0.367212 0.059,0.734814 0.0871,1.102495 0.0302,0.396645 0.0591,0.793526 0.0874,1.190504 0.0299,0.419828 0.0586,0.839862 0.0871,1.259922 0.0296,0.436357 0.0583,0.872842 0.0871,1.309333 0.0294,0.445928 0.0581,0.89194 0.0871,1.337927 0.0291,0.448458 0.0579,0.89696 0.0871,1.345406 0.0289,0.443878 0.0577,0.887768 0.0871,1.331562 0.0286,0.432259 0.0574,0.864502 0.0871,1.296601 0.0284,0.413808 0.0571,0.827582 0.0871,1.241128 0.0282,0.388876 0.0571,0.777648 0.0874,1.166152 0.0279,0.3577 0.0564,0.715309 0.0871,1.072485 0.0275,0.320916 0.0559,0.641693 0.0871,0.96184 0.0272,0.279149 0.0552,0.558141 0.0871,0.836142 0.0267,0.233055 0.0542,0.465982 0.0871,0.697207 0.0261,0.183398 0.0526,0.366915 0.087,0.547053 0.0251,0.131326 0.0495,0.264138 0.0871,0.388315 0.0238,0.07864 0.0441,0.16669 0.0871,0.223408 0.0237,0.03139 0.0561,0.0626 0.0871,0.05507 0.0379,-0.0092 0.0641,-0.06766 0.0874,-0.114181 0.0413,-0.08255 0.0627,-0.184748 0.0871,-0.281712 0.0362,-0.144488 0.0615,-0.294954 0.0871,-0.444695 0.0338,-0.198497 0.0608,-0.399593 0.0871,-0.600709 0.0325,-0.248097 0.0602,-0.497585 0.0871,-0.747222 0.0315,-0.293295 0.0598,-0.587427 0.0871,-0.881714 0.031,-0.333746 0.0594,-0.66804 0.0871,-1.002461 0.0305,-0.368801 0.0591,-0.737974 0.0871,-1.107243 0.0301,-0.397987 0.0588,-0.796243 0.0871,-1.194546 0.0299,-0.420826 0.0588,-0.841809 0.0874,-1.262853 0.0297,-0.43699 0.0583,-0.874122 0.0871,-1.311252 0.0294,-0.446199 0.0581,-0.89248 0.0871,-1.338736 0.0291,-0.448425 0.0579,-0.896894 0.0871,-1.345305 0.0289,-0.44344 0.0576,-0.886894 0.0871,-1.330248 0.0286,-0.43152 0.0574,-0.863022 0.0871,-1.294378 0.0284,-0.4127 0.0571,-0.825351 0.0871,-1.237793 0.0281,-0.387421 0.0568,-0.774764 0.0871,-1.161808 0.0279,-0.356027 0.0563,-0.711959 0.0871,-1.067432 0.0275,-0.31898 0.0561,-0.637786 0.0874,-0.955981 0.0272,-0.276924 0.0551,-0.553711 0.087,-0.829472 0.0266,-0.230611 0.0542,-0.461097 0.0871,-0.689831 0.026,-0.180832 0.0525,-0.361809 0.0871,-0.539273 0.025,-0.128694 0.0492,-0.259027 0.0871,-0.38023 0.0237,-0.07608 0.044,-0.162297 0.0871,-0.215123 0.0239,-0.02941 0.057,-0.05609 0.0871,-0.04657 0.0386,0.01222 0.0639,0.07388 0.0871,0.122668 0.0409,0.08609 0.0626,0.190415 0.0871,0.289998 0.0361,0.147331 0.0618,0.300295 0.0874,0.452677 0.0337,0.201054 0.0608,0.404668 0.0871,0.608288 0.0324,0.250446 0.0602,0.502246 0.0871,0.754195 0.0315,0.295429 0.0597,0.591678 0.0871,0.888078 0.031,0.335641 0.0593,0.671819 0.087,1.00812 0.0305,0.370423 0.059,0.741211 0.0871,1.112094 0.0301,0.39927 0.0588,0.798796 0.0871,1.198385 0.0299,0.421797 0.0585,0.843782 0.0871,1.265783 0.0296,0.437616 0.0586,0.875328 0.0874,1.313072 0.0294,0.446495 0.0581,0.893088 0.0871,1.339645 0.0291,0.448292 0.0579,0.896626 0.0871,1.344901 0.0289,0.443037 0.0576,0.886087 0.0871,1.329035 0.0286,0.430714 0.0574,0.861408 0.0871,1.291952 0.0284,0.411624 0.0571,0.8232 0.0871,1.234561 0.0281,0.385975 0.0568,0.771871 0.0871,1.157462 0.0278,0.35428 0.0564,0.708449 0.0871,1.062178 0.0275,0.316986 0.0557,0.633846 0.0871,0.950019 0.0272,0.274734 0.0554,0.54927 0.0874,0.822804 0.0266,0.228222 0.0541,0.456349 0.0871,0.682656 0.026,0.178269 0.0525,0.35671 0.0871,0.531493 0.025,0.126034 0.049,0.253875 0.0871,0.372046 0.0237,0.0735 0.044,0.157828 0.0871,0.206736 0.0242,0.0275 0.0578,0.04957 0.0871,0.03819 0.0396,-0.01537 0.0639,-0.08 0.0871,-0.131154 0.0406,-0.0895 0.0626,-0.196037 0.0871,-0.298284 0.0359,-0.150131 0.0614,-0.305701 0.0871,-0.460661 0.0337,-0.20364 0.061,-0.409653 0.0874,-0.615765 0.0323,-0.252774 0.0602,-0.506902 0.0871,-0.761167 0.0315,-0.297596 0.0597,-0.595995 0.087,-0.894544 0.0309,-0.337502 0.0594,-0.675527 0.0871,-1.013677 0.0305,-0.372011 0.059,-0.744381 0.0871,-1.116843 0.0301,-0.40052 0.0588,-0.801292 0.0871,-1.202125 0.0298,-0.422775 0.0585,-0.845728 0.0871,-1.268712 0.0295,-0.438216 0.0583,-0.876552 0.0871,-1.31489 0.0293,-0.446742 0.058,-0.89357 0.0871,-1.340354 0.0292,-0.448233 0.0581,-0.896484 0.0874,-1.344697 0.0288,-0.44256 0.0576,-0.885147 0.0871,-1.327622 0.0286,-0.42994 0.0573,-0.859861 0.0871,-1.289629 0.0283,-0.410481 0.0571,-0.820911 0.0871,-1.231124 0.0281,-0.384563 0.0568,-0.769047 0.0871,-1.153219 0.0278,-0.352532 0.0564,-0.704952 0.0871,-1.056923 0.0275,-0.314971 0.0558,-0.6298 0.0871,-0.943957 0.0271,-0.272505 0.0551,-0.544855 0.0871,-0.816135 0.0266,-0.225758 0.054,-0.451421 0.0871,-0.675178 0.026,-0.17576 0.0526,-0.351665 0.0874,-0.523813 0.025,-0.123395 0.0487,-0.248819 0.0871,-0.363963 0.0236,-0.07095 0.044,-0.153418 0.0871,-0.19835 0.0245,-0.02562 0.0586,-0.0428 0.0871,-0.02961 0.0403,0.0187 0.0639,0.08601 0.0871,0.139543 0.0403,0.09283 0.0625,0.2016 0.0871,0.306466 0.0358,0.152934 0.0614,0.311051 0.0871,0.468645 0.0335,0.206201 0.0606,0.414757 0.0871,0.623342 0.0323,0.255154 0.0605,0.511548 0.0874,0.768139 0.0315,0.299682 0.0597,0.600179 0.0871,0.90081 0.0309,0.339361 0.0593,0.679237 0.0871,1.019234 0.0304,0.373565 0.059,0.747482 0.0871,1.121492 0.0301,0.401837 0.0588,0.803922 0.0871,1.206065 0.0298,0.423655 0.0585,0.847482 0.0871,1.271339 0.0295,0.438824 0.0583,0.877767 0.0871,1.316709 0.0293,0.447013 0.0581,0.894103 0.0871,1.341161 0.0291,0.448093 0.0578,0.896233 0.0871,1.344294 0.0289,0.442141 0.0579,0.884265 0.0874,1.326308 0.0287,0.429093 0.0573,0.85818 0.0871,1.287104 0.0283,0.409338 0.0571,0.818624 0.0871,1.227689 0.0281,0.383083 0.0568,0.766086 0.0871,1.148772 0.0278,0.350784 0.0563,0.701455 0.0871,1.051669 0.0275,0.312989 0.0558,0.625837 0.0871,0.937996 0.0271,0.270224 0.0551,0.540291 0.0871,0.809263 0.0266,0.223347 0.054,0.446587 0.0871,0.667903 0.0259,0.173143 0.0521,0.346556 0.0871,0.515932 0.0249,0.12079 0.0487,0.243698 0.0874,0.355777 0.0236,0.06838 0.0441,0.148954 0.087,0.189964 0.0249,0.0238 0.0593,0.03618 0.0871,0.02122 0.041,-0.02212 0.0638,-0.09198 0.0871,-0.147929 0.04,-0.09615 0.0625,-0.207227 0.0871,-0.314753 0.0355,-0.155732 0.0614,-0.316411 0.0871,-0.476627 0.0334,-0.208743 0.0606,-0.419746 0.0871,-0.630819 0.0322,-0.257454 0.0601,-0.516153 0.087,-0.77501 0.0314,-0.30183 0.0597,-0.60444 0.0871,-0.907176 0.0309,-0.341198 0.0596,-0.682867 0.0874,-1.02469 0.0305,-0.375108 0.059,-0.750585 0.0871,-1.126139 0.0301,-0.403087 0.0588,-0.806416 0.0871,-1.209805 0.0298,-0.424599 0.0585,-0.849369 0.0871,-1.274168 0.0295,-0.439365 0.0582,-0.878846 0.0871,-1.318326 0.0293,-0.44725 0.0581,-0.894575 0.0871,-1.341868 0.0291,-0.44796 0.0579,-0.895958 0.0871,-1.343891 0.0288,-0.441628 0.0576,-0.883263 0.0871,-1.324792 0.0286,-0.428294 0.0573,-0.856574 0.0871,-1.284677 0.0284,-0.40817 0.0573,-0.816261 0.0874,-1.224152 0.0281,-0.381597 0.0567,-0.763128 0.0871,-1.144328 0.0278,-0.349037 0.0563,-0.697959 0.0871,-1.046414 0.0275,-0.310941 0.0558,-0.621736 0.0871,-0.931831 0.027,-0.268011 0.055,-0.535865 0.0871,-0.802595 0.0265,-0.220905 0.0539,-0.441709 0.0871,-0.660526 0.0259,-0.170549 0.052,-0.341371 0.0871,-0.508052 0.0248,-0.118108 0.0482,-0.238638 0.0871,-0.347593 0.0235,-0.06587 0.0443,-0.144495 0.0871,-0.181576 0.0254,-0.02207 0.0603,-0.02953 0.0874,-0.01273 0.0415,0.02573 0.0637,0.09793 0.0871,0.156315 0.0397,0.09942 0.0624,0.212852 0.0871,0.323038 0.0354,0.158458 0.0614,0.321635 0.0871,0.484407 0.0334,0.211281 0.0606,0.42475 0.0871,0.638297 0.0322,0.259832 0.0601,0.52088 0.0871,0.782083 0.0314,0.303898 0.0597,0.608545 0.0871,0.913339 0.0308,0.343013 0.0593,0.68653 0.0871,1.030148 0.0305,0.376682 0.0593,0.753677 0.0874,1.130787 0.0301,0.404293 0.0587,0.808844 0.0871,1.213441 0.0298,0.425513 0.0585,0.851191 0.0871,1.276898 0.0296,0.439939 0.0583,0.879992 0.0871,1.320043 0.0293,0.447421 0.0581,0.894914 0.0871,1.342374 0.0291,0.447827 0.0578,0.895691 0.0871,1.343486 0.0288,0.441126 0.0576,0.882254 0.0871,1.323276 0.0286,0.427454 0.0573,0.854884 0.0871,1.282152 0.0283,0.406985 0.057,0.813924 0.0871,1.220615 0.0281,0.380136 0.057,0.760159 0.0874,1.139881 0.0278,0.347248 0.0563,0.694397 0.0871,1.04106 0.0274,0.308893 0.0557,0.617638 0.0871,0.925668 0.027,0.26573 0.055,0.531303 0.0871,0.795723 0.0265,0.218464 0.0539,0.436832 0.0871,0.653151 0.0258,0.167987 0.0519,0.336293 0.0871,0.50027 0.0248,0.115465 0.0479,0.233593 0.0871,0.339408 0.0234,0.06336 0.0446,0.139973 0.0871,0.17319 0.0259,0.02023 0.0606,0.02266 0.087,0.0042 0.0421,-0.02943 0.0639,-0.103867 0.0874,-0.164804 0.0395,-0.102587 0.0623,-0.218399 0.0871,-0.331224 0.0354,-0.161237 0.0613,-0.326994 0.0871,-0.492389 0.0333,-0.213785 0.0606,-0.429685 0.0871,-0.645674 0.0321,-0.262142 0.0601,-0.525471 0.0871,-0.788953 0.0313,-0.305964 0.0597,-0.61266 0.0871,-0.919504 0.0308,-0.344839 0.0593,-0.690162 0.0871,-1.035603 0.0304,-0.378193 0.059,-0.75672 0.0871,-1.135334 0.0301,-0.405519 0.0586,-0.81128 0.087,-1.21708 0.0298,-0.426398 0.0588,-0.852935 0.0874,-1.279524 0.0295,-0.440472 0.0583,-0.881072 0.0871,-1.32166 0.0293,-0.447624 0.0578,-1.253253 0.0871,-1.34298"
           title="sin(5*x)"
           class="fill-box"
           transform="scale(2.5,1)"
           id="waveform" />
      </g>
      <rect
         style="font-variation-settings:normal;display:inline;opacity:1;fill:none;fill-opacity:1;stroke:url(#linearGradient35);stroke-width:2.64583;stroke-linecap:round;stroke-linejoin:round;stroke-miterlimit:4;stroke-dasharray:none;stroke-dashoffset:0;stroke-opacity:1;paint-order:stroke markers fill;stop-color:#000000;stop-opacity:1"
         id="rect2-7"
         width="87.231232"
         height="29.104168"
         x="218.36252"
         y="38.364582"
         ry="2.6458321" />
      <g
         id="rect1" />
    </g>
    <path
       id="background"
       style="display:inline;fill:url(#radialGradient45);fill-opacity:1;stroke-width:3;stroke-linecap:round;stroke-linejoin:round;paint-order:stroke markers fill"
       d="M 13.229166 26.458333 C 5.9002228 26.458333 -2.5066343e-15 32.358556 0 39.687499 L 0 224.89583 C 0 232.22477 5.9002228 238.125 13.229166 238.125 L 304.27083 238.125 C 311.59977 238.125 317.49999 232.22477 317.49999 224.89583 L 317.49999 39.687499 C 317.49999 32.358556 311.59977 26.458333 304.27083 26.458333 L 13.229166 26.458333 z M 108.28176 81.967605 L 184.12933 81.967605 C 186.14336 81.967605 187.803 83.766813 187.803 85.949791 L 187.803 109.84084 C 187.803 112.02382 186.14336 113.82251 184.12933 113.82251 L 108.28176 113.82251 C 106.26773 113.82251 104.60808 112.02382 104.60808 109.84084 L 104.60808 85.949791 C 104.60808 83.766813 106.26773 81.967605 108.28176 81.967605 z " />
    <g
       id="lcd"
       transform="translate(198.43751)">
      <rect
         style="display:inline;fill:#95cf1a;fill-opacity:1;stroke:url(#linearGradient32);stroke-width:5.29167;stroke-linecap:round;stroke-linejoin:round;stroke-dasharray:none;stroke-opacity:1;paint-order:stroke markers fill"
         id="rect2"
         width="92.604164"
         height="71.4375"
         x="13.229166"
         y="39.6875"
         ry="2.6458321" />
      <text
         xml:space="preserve"
         style="font-style:normal;font-variant:normal;font-weight:normal;font-stretch:normal;font-size:11.9361px;line-height:10.5833px;font-family:Tiny5;-inkscape-font-specification:Tiny5;text-decoration-color:#000000;letter-spacing:0px;display:inline;fill:#003524;stroke-width:2.23804;stroke-linecap:round;stroke-linejoin:round;paint-order:stroke markers fill"
         x="17.757343"
         y="51.489235"
         id="text1"><tspan
           style="line-height:10.5833px;stroke-width:2.23804"
           x="17.757343"
           y="51.489235"
           id="lcd_line_1">{{LCD_LINE1}}</tspan><tspan
           style="line-height:10.5833px;stroke-width:2.23804"
           x="17.757343"
           y="62.072536"
           id="lcd_line_2">{{LCD_LINE2}}</tspan><tspan
           style="line-height:10.5833px;stroke-width:2.23804"
           x="17.757343"
           y="72.655838"
           id="lcd_line_3">{{LCD_LINE3}}</tspan><tspan
           style="line-height:10.5833px;stroke-width:2.23804"
           x="17.757343"
           y="83.239136"
           id="lcd_line_4">{{LCD_LINE4}}</tspan><tspan
           style="line-height:10.5833px;stroke-width:2.23804"
           x="17.757343"
           y="93.822433"
           id="lcd_line_5">{{LCD_LINE5}}</tspan><tspan
           style="line-height:10.5833px;stroke-width:2.23804"
           x="17.757343"
           y="104.40573"
           id="lcd_line_6">{{LCD_LINE6}}</tspan></text>
    </g>
    <g
       id="frequency_adjust"
       transform="matrix(1.9735671,0,0,1.9735671,1.0490583,-77.188047)">
      <g
         id="frequency_knob"
         class="fill-box">
        <circle
           style="font-variation-settings:normal;fill:#e2c196;fill-opacity:1;stroke:#b57b30;stroke-width:2.59292;stroke-linecap:round;stroke-linejoin:round;stroke-miterlimit:4;stroke-dasharray:0.259292, 3.88937;stroke-dashoffset:0;stroke-opacity:1;paint-order:stroke markers fill"
           id="c1"
           cx="26.458332"
           cy="97.895828"
           r="13.229166" />
        <path
           style="fill:none;stroke:#55310d;stroke-width:1.32292;stroke-linecap:butt;stroke-linejoin:round;stroke-dasharray:none;stroke-opacity:1;paint-order:stroke markers fill"
           d="M 26.458332,85.487269 V 92.58675"
           id="path1" />
      </g>
      <g
         id="frequency_scale">
        <path
           style="color:#000000;fill:#e2c196;stroke-linejoin:round;stroke-dasharray:0.340897, 10.5678;-inkscape-stroke:none;paint-order:stroke markers fill"
           d="m 92.007812,-44.517578 -0.185546,0.05859 a 1.7046555,1.7046555 0 0 0 -0.02148,0.0059 l -0.138672,0.04687 1.074219,3.236328 0.128906,-0.04297 0.173828,-0.05664 z m 11.439458,0.0078 -1.03321,3.248047 0.14844,0.04883 0.15625,0.05078 1.07227,-3.236328 -0.16602,-0.05469 a 1.7046555,1.7046555 0 0 0 -0.0195,-0.0059 z m -21.048833,6.810547 -0.117187,0.160157 a 1.7046555,1.7046555 0 0 0 -0.01172,0.01563 l -0.08398,0.117187 2.765625,1.992188 0.07813,-0.107422 0.111328,-0.152344 z m 30.646483,0.02344 -2.74219,2.02539 0.0957,0.128907 0.0937,0.128906 2.76562,-1.992188 -0.0996,-0.138671 a 1.7046555,1.7046555 0 0 0 -0.0117,-0.01563 z m -34.425779,11.11914 v 0.01172 a 1.7046555,1.7046555 0 0 0 -0.002,0.02148 v 0.224609 a 1.7046555,1.7046555 0 0 0 0,0.02148 v 0.103516 l 3.408204,-0.02148 v -0.09375 l 0.002,-0.203125 z m 38.191409,0.04883 -3.41016,0.02148 0.002,0.1875 v 0.02148 l -0.002,0.191407 -0.002,0.105468 3.4082,0.06445 0.002,-0.115234 a 1.7046555,1.7046555 0 0 0 0,-0.02148 l 0.002,-0.22461 -1.70508,-0.01172 1.70508,-0.0098 z M 84.890625,-17.25 82.09375,-15.298828 c 0.07467,0.106999 0.15065,0.213559 0.228516,0.318359 l 2.736328,-2.033203 c -0.05767,-0.07762 -0.112581,-0.156958 -0.167969,-0.236328 z m 25.521485,0.173828 c -0.0537,0.07483 -0.10996,0.153107 -0.17188,0.234375 l 2.71094,2.066406 c 0.0758,-0.0995 0.15365,-0.204586 0.23242,-0.314453 z m -17.777344,5.634766 -1.121094,3.2207029 c 0.123336,0.042983 0.247872,0.08365 0.373047,0.1230468 l 1.021484,-3.2519527 c -0.09161,-0.02883 -0.18217,-0.05999 -0.273437,-0.0918 z m 9.955074,0.06836 c -0.0878,0.02932 -0.18104,0.05891 -0.27734,0.08789 l 0.98242,3.2636716 c 0.12132,-0.036511 0.24723,-0.074508 0.375,-0.1171875 z"
           id="scale-4"
           transform="rotate(90)" />
        <rect
           style="fill:#291200;fill-opacity:1;stroke:none;stroke-width:1.56359;stroke-linecap:butt;stroke-linejoin:round;stroke-dasharray:0.205569, 6.37262;stroke-dashoffset:0;stroke-opacity:1;paint-order:stroke markers fill"
           id="rect4"
           width="8.4400892"
           height="6.8575735"
           x="22.471739"
           y="112.78071"
           ry="2.6458321" />
        <text
           xml:space="preserve"
           style="font-size:5.29167px;line-height:26.4582px;font-family:'Tw Cen MT Condensed';-inkscape-font-specification:'Tw Cen MT Condensed, ';text-align:center;text-decoration-color:#000000;letter-spacing:0px;text-anchor:middle;fill:#e2c196;fill-opacity:1;stroke:none;stroke-width:2.59292;stroke-linecap:butt;stroke-linejoin:round;stroke-dasharray:0.340897, 10.5678;stroke-dashoffset:0;stroke-opacity:1;paint-order:stroke markers fill"
           x="41.316689"
           y="117.28114"
           id="text4"><tspan
             id="tspan4"
             style="font-size:5.29167px;line-height:26.4582px;fill:#e2c196;fill-opacity:1;stroke-width:2.59292"
             x="41.316689"
             y="117.28114">1000</tspan></text>
        <text
           xml:space="preserve"
           style="font-size:5.29167px;line-height:26.4582px;font-family:'Tw Cen MT Condensed';-inkscape-font-specification:'Tw Cen MT Condensed, ';text-align:center;text-decoration-color:#000000;letter-spacing:0px;text-anchor:middle;fill:#e2c196;fill-opacity:1;stroke:none;stroke-width:2.59292;stroke-linecap:butt;stroke-linejoin:round;stroke-dasharray:0.340897, 10.5678;stroke-dashoffset:0;stroke-opacity:1;paint-order:stroke markers fill"
           x="11.807445"
           y="116.98902"
           id="text4-4"><tspan
             id="tspan4-1"
             style="font-size:5.29167px;line-height:26.4582px;fill:#e2c196;fill-opacity:1;stroke-width:2.59292"
             x="11.807445"
             y="116.98902">200</tspan></text>
      </g>
    </g>
    <g
       id="logo">
      <rect
         style="font-variation-settings:normal;opacity:1;fill:url(#linearGradient43);fill-opacity:1;stroke:none;stroke-width:0;stroke-linecap:round;stroke-linejoin:round;stroke-miterlimit:4;stroke-dasharray:none;stroke-dashoffset:0;stroke-opacity:1;paint-order:stroke markers fill;stop-color:#000000;stop-opacity:1"
         id="rect42"
         width="171.97917"
         height="19.843748"
         x="13.229166"
         y="39.6875"
         ry="2.6458321" />
      <text
         xml:space="preserve"
         style="font-style:normal;font-variant:normal;font-weight:normal;font-stretch:normal;font-size:15.875px;line-height:79.3747px;font-family:'Freestyle Script';-inkscape-font-specification:'Freestyle Script';text-decoration-color:#000000;letter-spacing:0px;opacity:1;fill:#0c0c0c;fill-opacity:1;stroke:none;stroke-width:2.59292;stroke-linecap:round;stroke-linejoin:round;stroke-miterlimit:4;stroke-dasharray:0.259292, 3.88937;stroke-dashoffset:0;stroke-opacity:1;paint-order:stroke markers fill"
         x="99.708145"
         y="53.688869"
         id="text41"><tspan
           id="tspan41"
           style="font-style:normal;font-variant:normal;font-weight:normal;font-stretch:normal;font-size:15.875px;line-height:79.3747px;font-family:'Freestyle Script';-inkscape-font-specification:'Freestyle Script';text-align:center;text-anchor:middle;fill:#0c0c0c;fill-opacity:1;stroke:none;stroke-width:2.59292"
           x="99.708145"
           y="53.688869">Doohickey        <tspan
   style="font-style:normal;font-variant:normal;font-weight:normal;font-stretch:normal;font-family:'Tw Cen MT Condensed';-inkscape-font-specification:'Tw Cen MT Condensed, '"
   id="tspan43">Communicator</tspan><tspan
   style="font-style:normal;font-variant:normal;font-weight:normal;font-stretch:normal;font-size:15.875px;line-height:79.3747px;font-family:'Tw Cen MT Condensed';-inkscape-font-specification:'Tw Cen MT Condensed, ';text-align:center;text-anchor:middle;fill:#0c0c0c;fill-opacity:1"
   id="tspan42"> 3000</tspan></tspan></text>
    </g>
  </g>
</svg>
