<?xml version="1.0" encoding="UTF-8" standalone="no"?>
<!-- Created with Inkscape (http://www.inkscape.org/) -->

<svg
   width="1200"
   height="900"
   viewBox="0 0 317.49999 238.125"
   version="1.1"
   id="svg1"
   sodipodi:docname="communicator.svg"
   inkscape:version="1.3.2 (091e20e, 2023-11-25, custom)"
   inkscape:export-filename="communicator_plain.svg"
   inkscape:export-xdpi="96"
   inkscape:export-ydpi="96"
   xmlns:inkscape="http://www.inkscape.org/namespaces/inkscape"
   xmlns:sodipodi="http://sodipodi.sourceforge.net/DTD/sodipodi-0.dtd"
   xmlns:xlink="http://www.w3.org/1999/xlink"
   xmlns="http://www.w3.org/2000/svg"
   xmlns:svg="http://www.w3.org/2000/svg">
  <sodipodi:namedview
     id="namedview1"
     pagecolor="#ffffff"
     bordercolor="#000000"
     borderopacity="0.25"
     inkscape:showpageshadow="2"
     inkscape:pageopacity="0.0"
     inkscape:pagecheckerboard="0"
     inkscape:deskcolor="#d1d1d1"
     inkscape:document-units="mm"
     inkscape:zoom="1.4142136"
     inkscape:cx="707.81389"
     inkscape:cy="268.34702"
     inkscape:window-width="1920"
     inkscape:window-height="1051"
     inkscape:window-x="-9"
     inkscape:window-y="-9"
     inkscape:window-maximized="1"
     inkscape:current-layer="layer1"
     showgrid="true"
     showguides="false">
    <inkscape:grid
       id="grid1"
       units="px"
       originx="0"
       originy="0"
       spacingx="1.3229166"
       spacingy="1.3229166"
       empcolor="#000000"
       empopacity="0.43921569"
       color="#000000"
       opacity="0.19607843"
       empspacing="10"
       dotted="false"
       gridanglex="30"
       gridanglez="30"
       visible="true" />
  </sodipodi:namedview>
  <defs
     id="defs1">
    <linearGradient
       id="linearGradient44"
       inkscape:collect="always">
      <stop
         style="stop-color:#371800;stop-opacity:1;"
         offset="0"
         id="stop44" />
      <stop
         style="stop-color:#1b0c00;stop-opacity:1;"
         offset="1"
         id="stop45" />
    </linearGradient>
    <linearGradient
       id="linearGradient42"
       inkscape:collect="always">
      <stop
         style="stop-color:#b8b8b8;stop-opacity:1;"
         offset="0"
         id="stop42" />
      <stop
         style="stop-color:#616161;stop-opacity:1;"
         offset="1"
         id="stop43" />
    </linearGradient>
    <linearGradient
       id="linearGradient34"
       inkscape:collect="always">
      <stop
         style="stop-color:#b8b8b8;stop-opacity:1;"
         offset="0"
         id="stop33" />
      <stop
         style="stop-color:#616161;stop-opacity:1;"
         offset="1"
         id="stop34" />
    </linearGradient>
    <linearGradient
       inkscape:collect="always"
       xlink:href="#linearGradient34"
       id="linearGradient32"
       x1="11.729166"
       y1="38.1875"
       x2="107.33333"
       y2="112.625"
       gradientUnits="userSpaceOnUse"
       spreadMethod="pad" />
    <linearGradient
       inkscape:collect="always"
       xlink:href="#linearGradient34"
       id="linearGradient35"
       gradientUnits="userSpaceOnUse"
       x1="171.97917"
       y1="39.6875"
       x2="305.59375"
       y2="67.46875"
       spreadMethod="pad" />
    <linearGradient
       inkscape:collect="always"
       xlink:href="#linearGradient34"
       id="linearGradient32-8"
       x1="11.729166"
       y1="38.1875"
       x2="107.33333"
       y2="112.625"
       gradientUnits="userSpaceOnUse"
       spreadMethod="pad" />
    <linearGradient
       inkscape:collect="always"
       xlink:href="#linearGradient42"
       id="linearGradient43"
       x1="10.583331"
       y1="49.609374"
       x2="187.85417"
       y2="49.609374"
       gradientUnits="userSpaceOnUse" />
    <radialGradient
       inkscape:collect="always"
       xlink:href="#linearGradient44"
       id="radialGradient45"
       cx="34.395832"
       cy="14.022923"
       fx="34.395832"
       fy="14.022923"
       r="158.75"
       gradientTransform="matrix(0.99968036,-0.02528212,0.03242641,1.2821727,-0.44371862,36.335628)"
       gradientUnits="userSpaceOnUse" />
  </defs>
  <g
     inkscape:label="Layer 1"
     inkscape:groupmode="layer"
     id="layer1">
    <g
       id="g45"
       inkscape:label="popups">
      <rect
         style="fill:#0c0c0c;fill-opacity:1;stroke:#b57b30;stroke-width:0;stroke-linecap:round;stroke-linejoin:round;stroke-miterlimit:4;stroke-dasharray:none;stroke-dashoffset:0;stroke-opacity:1;paint-order:stroke markers fill"
         id="rect45"
         width="14.552086"
         height="15.875"
         x="26.458334"
         y="13.229166"
         ry="2.6458321" />
      <rect
         style="fill:#0c0c0c;fill-opacity:1;stroke:#b57b30;stroke-width:0;stroke-linecap:round;stroke-linejoin:round;stroke-miterlimit:4;stroke-dasharray:none;stroke-dashoffset:0;stroke-opacity:1;paint-order:stroke markers fill"
         id="rect45-2"
         width="14.552086"
         height="15.875"
         x="43.656242"
         y="13.229166"
         ry="2.6458321" />
      <rect
         style="fill:#0c0c0c;fill-opacity:1;stroke:#b57b30;stroke-width:0;stroke-linecap:round;stroke-linejoin:round;stroke-miterlimit:4;stroke-dasharray:none;stroke-dashoffset:0;stroke-opacity:1;paint-order:stroke markers fill"
         id="rect45-8"
         width="14.552086"
         height="15.875"
         x="60.854164"
         y="13.229166"
         ry="2.6458321" />
    </g>
    <path
       id="rect1"
       style="display:inline;fill:url(#radialGradient45);fill-opacity:1;stroke-width:3;stroke-linecap:round;stroke-linejoin:round;paint-order:stroke markers fill"
       d="M 13.229167,26.458333 C 5.900216,26.458333 0,32.358549 0,39.6875 V 224.89583 C 0,232.22478 5.900216,238.125 13.229167,238.125 H 304.27083 c 7.32895,0 13.22917,-5.90022 13.22917,-13.22917 V 39.6875 c 0,-7.328951 -5.90022,-13.229167 -13.22917,-13.229167 z"
       sodipodi:nodetypes="sssssssss"
       inkscape:label="background" />
    <g
       id="g40"
       inkscape:label="waveform_view"
       transform="translate(-119.0625,44.979163)">
      <rect
         style="font-variation-settings:normal;display:inline;opacity:1;fill:#430400;fill-opacity:1;stroke:none;stroke-width:2.64583;stroke-linecap:round;stroke-linejoin:round;stroke-miterlimit:4;stroke-dasharray:none;stroke-dashoffset:0;stroke-opacity:1;paint-order:stroke markers fill"
         id="rect37"
         width="134.9375"
         height="29.104168"
         x="170.65625"
         y="38.364582"
         ry="0" />
      <g
         id="g37"
         style="stroke:#a70a00;stroke-width:1.32292;stroke-opacity:1">
        <path
           style="font-variation-settings:normal;display:inline;opacity:1;fill:none;fill-opacity:1;stroke-width:0.378967;stroke-linecap:round;stroke-linejoin:round;stroke-miterlimit:4;stroke-dasharray:none;stroke-dashoffset:0;stroke-opacity:1;paint-order:stroke markers fill"
           d="m 170.65805,52.916665 c 0.0454,-0.08953 0.0896,-0.892378 0.13496,-1.338514 0.0446,-0.439156 0.0892,-0.878326 0.13495,-1.317366 0.0443,-0.425171 0.0892,-0.85029 0.13547,-1.27527 0.0439,-0.404418 0.0884,-0.808796 0.13496,-1.212933 0.0435,-0.377354 0.0879,-0.754623 0.13495,-1.131558 0.043,-0.344326 0.0872,-0.688536 0.13496,-1.032261 0.0425,-0.305824 0.0863,-0.6115 0.13496,-0.916447 0.0419,-0.262573 0.0851,-0.524991 0.13496,-0.78623 0.0411,-0.215303 0.0834,-0.430521 0.13496,-0.643627 0.04,-0.164846 0.0802,-0.330051 0.13496,-0.490752 0.0383,-0.112449 0.0738,-0.227884 0.13496,-0.330122 0.0364,-0.06071 0.0702,-0.134829 0.13547,-0.164155 0.0409,-0.01839 0.0949,-0.01604 0.13495,0.0041 0.0658,0.03308 0.0987,0.10946 0.13495,0.172614 0.0607,0.105463 0.0965,0.223198 0.13496,0.338279 0.0545,0.163432 0.095,0.331178 0.13496,0.498607 0.0515,0.2156 0.0939,0.433242 0.13496,0.650979 0.0497,0.263541 0.0931,0.528231 0.13496,0.793078 0.0486,0.307038 0.0925,0.614792 0.13496,0.922691 0.0477,0.345477 0.0918,0.691438 0.13496,1.037497 0.0472,0.37846 0.0919,0.757219 0.13547,1.136091 0.0467,0.405372 0.091,0.810993 0.13495,1.216658 0.0461,0.425814 0.0906,0.851789 0.13496,1.277788 0.0457,0.439555 0.0903,0.879218 0.13496,1.318876 0.0454,0.446307 0.0899,0.892681 0.13496,1.339019 0.045,0.445973 0.0896,0.891977 0.13495,1.337911 0.0447,0.438621 0.0892,0.877245 0.13496,1.315754 0.0443,0.424258 0.0888,0.848488 0.13496,1.272552 0.0438,0.403252 0.0883,0.806458 0.13496,1.209406 0.0435,0.375858 0.0883,0.751598 0.13546,1.127028 0.0431,0.342508 0.0872,0.684917 0.13496,1.026822 0.0425,0.303782 0.0862,0.607417 0.13496,0.910304 0.0418,0.260301 0.0851,0.520446 0.13496,0.779381 0.041,0.212836 0.0833,0.425597 0.13496,0.636175 0.0399,0.162231 0.08,0.324865 0.13496,0.482796 0.0382,0.10982 0.0734,0.222868 0.13496,0.321964 0.0362,0.0582 0.0705,0.130149 0.13496,0.155796 0.0419,0.01668 0.0956,0.0093 0.13495,-0.01259 0.0664,-0.03693 0.0989,-0.115267 0.13546,-0.180973 0.0603,-0.10854 0.0964,-0.22872 0.13496,-0.346437 0.0543,-0.166158 0.0949,-0.336448 0.13496,-0.506463 0.0514,-0.218091 0.0939,-0.438159 0.13496,-0.65833 0.0496,-0.265843 0.0931,-0.532807 0.13496,-0.799927 0.0485,-0.309064 0.0924,-0.618825 0.13496,-0.928732 0.0477,-0.347264 0.0918,-0.694992 0.13496,-1.042835 0.0471,-0.379932 0.0913,-0.760194 0.13496,-1.140522 0.0466,-0.406568 0.0914,-0.813336 0.13546,-1.220183 0.0462,-0.42668 0.0906,-0.853536 0.13496,-1.280406 0.0457,-0.44006 0.0903,-0.880227 0.13496,-1.320387 0.0454,-0.446443 0.0899,-0.892952 0.13495,-1.339422 0.045,-0.445772 0.0896,-0.891576 0.13496,-1.337306 0.0446,-0.438052 0.0892,-0.876106 0.13496,-1.314043 0.0443,-0.423387 0.0888,-0.846745 0.13496,-1.269932 0.0438,-0.402014 0.0883,-0.803968 0.13496,-1.205681 0.0434,-0.374339 0.0877,-0.748602 0.13496,-1.122496 0.043,-0.340687 0.0876,-0.681221 0.13546,-1.021283 0.0425,-0.301697 0.0862,-0.603265 0.13496,-0.904059 0.0418,-0.258029 0.085,-0.515902 0.13496,-0.772534 0.041,-0.210371 0.0831,-0.420674 0.13496,-0.628722 0.0397,-0.15965 0.0798,-0.319759 0.13496,-0.474941 0.0381,-0.107167 0.073,-0.217865 0.13496,-0.313707 0.0361,-0.05579 0.0715,-0.125468 0.13495,-0.147537 0.0429,-0.01493 0.0963,-0.0026 0.13496,0.02115 0.0666,0.04087 0.0984,0.121184 0.13496,0.189332 0.0599,0.111706 0.0967,0.234206 0.13546,0.354594 0.0542,0.168814 0.0948,0.34165 0.13496,0.514217 0.0513,0.22058 0.0938,0.443078 0.13496,0.665682 0.0495,0.268111 0.093,0.537315 0.13496,0.806674 0.0485,0.311089 0.0924,0.622861 0.13496,0.934776 0.0477,0.349049 0.0918,0.698554 0.13496,1.048172 0.047,0.381414 0.0914,0.763143 0.13496,1.144953 0.0465,0.407704 0.091,0.81563 0.13496,1.223607 0.0461,0.427531 0.0905,0.855225 0.13495,1.282924 0.0458,0.44054 0.0907,0.881161 0.13546,1.321798 0.0454,0.446571 0.0899,0.893221 0.13496,1.339824 0.045,0.445572 0.0896,0.891175 0.13496,1.336702 0.0445,0.437483 0.0892,0.874966 0.13496,1.312331 0.0442,0.422481 0.0888,0.844934 0.13496,1.267213 0.0438,0.400773 0.0883,0.801487 0.13496,1.201954 0.0434,0.372766 0.0878,0.74544 0.13496,1.117763 0.0429,0.338867 0.0871,0.677613 0.13496,1.015845 0.0424,0.299631 0.0861,0.59913 0.13495,0.897815 0.0418,0.255739 0.0853,0.51128 0.13547,0.765585 0.041,0.207892 0.083,0.415754 0.13496,0.62127 0.0396,0.15707 0.0795,0.314661 0.13496,0.467086 0.038,0.104518 0.0725,0.212922 0.13495,0.305447 0.036,0.05336 0.0725,0.120447 0.13496,0.139079 0.0441,0.01316 0.0969,-0.004 0.13496,-0.02951 0.0668,-0.04478 0.0984,-0.126983 0.13496,-0.197691 0.0594,-0.114761 0.0962,-0.239751 0.13495,-0.362752 0.0539,-0.171528 0.0947,-0.346863 0.13496,-0.521971 0.0513,-0.223081 0.0942,-0.447977 0.13547,-0.673034 0.0496,-0.270361 0.093,-0.541821 0.13496,-0.813421 0.0484,-0.313112 0.0924,-0.626894 0.13496,-0.940819 0.0476,-0.3508 0.0919,-0.702049 0.13496,-1.053409 0.047,-0.382894 0.0913,-0.7661 0.13496,-1.149384 0.0465,-0.408849 0.0909,-0.817915 0.13496,-1.227031 0.0461,-0.428305 0.0906,-0.856762 0.13496,-1.28524 0.0457,-0.441037 0.0901,-0.882187 0.13494,-1.323309 0.0454,-0.446689 0.0903,-0.893415 0.13547,-1.340126 0.0451,-0.445331 0.0895,-0.890707 0.13496,-1.335997 0.0446,-0.436881 0.0892,-0.873759 0.13496,-1.310518 0.0442,-0.421544 0.0888,-0.843057 0.13496,-1.264394 0.0438,-0.399533 0.0883,-0.799006 0.13496,-1.198228 0.0434,-0.371223 0.0878,-0.742355 0.13496,-1.113129 0.0429,-0.337026 0.0871,-0.673927 0.13496,-1.010307 0.0424,-0.297522 0.0861,-0.594895 0.13495,-0.891469 0.0417,-0.253419 0.0848,-0.506702 0.13496,-0.758637 0.041,-0.20546 0.0833,-0.410823 0.13547,-0.613817 0.0396,-0.154445 0.0793,-0.309498 0.13495,-0.45913 0.0379,-0.101906 0.072,-0.208099 0.13496,-0.297292 0.036,-0.05097 0.0737,-0.115298 0.13496,-0.130618 0.0454,-0.01135 0.0975,0.01057 0.13496,0.03796 0.0668,0.04872 0.0983,0.132791 0.13496,0.206049 0.059,0.117778 0.0962,0.245192 0.13496,0.370809 0.0537,0.174234 0.0947,0.352119 0.13495,0.529827 0.0511,0.225522 0.0936,0.452855 0.13496,0.680285 0.0495,0.272623 0.0934,0.546247 0.13547,0.820068 0.0485,0.315122 0.0923,0.630928 0.13496,0.94686 0.0476,0.352553 0.0917,0.705545 0.13496,1.058647 0.047,0.384309 0.0913,0.768922 0.13496,1.153613 0.0465,0.409993 0.0909,0.820201 0.13495,1.230456 0.046,0.429113 0.0906,0.858375 0.13496,1.287657 0.0457,0.441475 0.0902,0.883052 0.13495,1.324616 0.0453,0.446818 0.0899,0.893695 0.13496,1.340529 0.0449,0.445073 0.0894,0.890181 0.13496,1.335192 0.0446,0.436288 0.0896,0.872545 0.13547,1.308706 0.0442,0.420598 0.0887,0.841179 0.13496,1.261573 0.0438,0.398261 0.0883,0.796459 0.13496,1.194402 0.0434,0.369615 0.0877,0.739137 0.13496,1.108295 0.0429,0.335183 0.087,0.670243 0.13496,1.004768 0.0424,0.295449 0.0861,0.590746 0.13496,0.885226 0.0417,0.251112 0.0848,0.502075 0.13495,0.751688 0.0408,0.20291 0.0828,0.405785 0.13495,0.606164 0.0396,0.151882 0.0789,0.304456 0.13496,0.451273 0.0379,0.09931 0.072,0.203227 0.13547,0.289034 0.036,0.0486 0.075,0.110098 0.13496,0.122259 0.0467,0.0095 0.0978,-0.0172 0.13496,-0.04652 0.0667,-0.05265 0.0982,-0.138509 0.13496,-0.214307 0.0587,-0.120794 0.0961,-0.250699 0.13496,-0.378966 0.0535,-0.176906 0.0947,-0.357317 0.13495,-0.537581 0.051,-0.227974 0.0937,-0.457692 0.13496,-0.687537 0.0494,-0.274843 0.0928,-0.550711 0.13496,-0.826714 0.0484,-0.317137 0.0927,-0.634883 0.13547,-0.952802 0.0477,-0.354259 0.0917,-0.708972 0.13496,-1.063782 0.047,-0.385757 0.0913,-0.771812 0.13495,-1.157945 0.0465,-0.411104 0.0909,-0.822418 0.13496,-1.233779 0.046,-0.429922 0.0906,-0.859989 0.13496,-1.290074 0.0456,-0.44188 0.0902,-0.883859 0.13496,-1.325825 0.0453,-0.446886 0.0898,-0.893831 0.13495,-1.340731 0.0449,-0.444806 0.0895,-0.889636 0.13496,-1.334386 0.0446,-0.435676 0.089,-0.871355 0.13496,-1.306892 0.0442,-0.419644 0.0891,-0.839227 0.13547,-1.258654 0.0438,-0.396945 0.0883,-0.793843 0.13496,-1.190473 0.0433,-0.368041 0.0877,-0.735987 0.13496,-1.103562 0.0429,-0.333309 0.087,-0.666491 0.13496,-0.999129 0.0423,-0.29334 0.086,-0.58653 0.13496,-0.878882 0.0416,-0.248774 0.0847,-0.497398 0.13494,-0.744637 0.0408,-0.200446 0.0826,-0.400872 0.13496,-0.598711 0.0395,-0.149276 0.0788,-0.299282 0.13496,-0.443318 0.0377,-0.09661 0.0711,-0.198415 0.13496,-0.280675 0.0361,-0.04639 0.0768,-0.104734 0.13547,-0.113901 0.0481,-0.0075 0.0982,0.02362 0.13496,0.05489 0.0666,0.05653 0.0981,0.144286 0.13496,0.222666 0.0583,0.123795 0.096,0.256203 0.13496,0.387123 0.0534,0.179543 0.0946,0.362446 0.13496,0.545235 0.0509,0.230423 0.0936,0.462542 0.13495,0.694788 0.0493,0.277076 0.0929,0.555141 0.13496,0.833362 0.0483,0.319116 0.0923,0.638861 0.13496,0.958743 0.0475,0.355989 0.0916,0.71241 0.13496,1.068919 0.047,0.38718 0.0917,0.774625 0.13546,1.162174 0.0465,0.412171 0.0909,0.824569 0.13496,1.237001 0.046,0.430696 0.0905,0.861536 0.13496,1.292391 0.0456,0.442286 0.0902,0.884666 0.13496,1.327034 0.0453,0.446955 0.0898,0.893967 0.13495,1.340932 0.0448,0.444505 0.0895,0.889034 0.13496,1.333479 0.0445,0.435041 0.0891,0.870073 0.13496,1.304979 0.0441,0.418664 0.0887,0.837292 0.13496,1.255733 0.0437,0.395681 0.0881,0.791306 0.13496,1.186646 0.0434,0.366445 0.0881,0.732761 0.13547,1.098729 0.0429,0.331424 0.087,0.662738 0.13496,0.993488 0.0423,0.2912 0.0859,0.582247 0.13496,0.872437 0.0416,0.246435 0.0846,0.492723 0.13495,0.737587 0.0407,0.19795 0.0825,0.395898 0.13495,0.591159 0.0394,0.146638 0.0785,0.294079 0.13496,0.435261 0.0376,0.09401 0.0707,0.193686 0.13496,0.272517 0.036,0.04403 0.0778,0.09903 0.13496,0.105442 0.0497,0.0056 0.0988,-0.02999 0.13547,-0.06335 0.0664,-0.06035 0.0979,-0.15005 0.13496,-0.231025 0.058,-0.126714 0.0959,-0.261566 0.13496,-0.395078 0.0532,-0.182202 0.0945,-0.367642 0.13496,-0.55299 0.0508,-0.232872 0.0936,-0.467389 0.13495,-0.702039 0.0492,-0.279275 0.0929,-0.559511 0.13496,-0.839907 0.0482,-0.321106 0.0923,-0.642829 0.13496,-0.964685 0.0475,-0.357674 0.0917,-0.715762 0.13495,-1.073954 0.0469,-0.388585 0.0912,-0.777466 0.13496,-1.166405 0.0465,-0.413267 0.0913,-0.826709 0.13547,-1.240224 0.0461,-0.431427 0.0905,-0.863014 0.13496,-1.294606 0.0456,-0.44269 0.0902,-0.885474 0.13496,-1.328243 0.0452,-0.447023 0.0898,-0.894102 0.13496,-1.341133 0.0448,-0.444171 0.0895,-0.888364 0.13495,-1.332472 0.0444,-0.434371 0.0891,-0.868734 0.13496,-1.302965 0.0441,-0.417692 0.0887,-0.835347 0.13496,-1.252812 0.0437,-0.394341 0.0882,-0.788614 0.13496,-1.182619 0.0433,-0.364825 0.0875,-0.729564 0.13496,-1.093893 0.0429,-0.329537 0.0873,-0.658909 0.13546,-0.987748 0.0423,-0.289081 0.0859,-0.57803 0.13496,-0.866092 0.0416,-0.244098 0.0845,-0.488051 0.13496,-0.730539 0.0407,-0.195421 0.0824,-0.390854 0.13495,-0.583504 0.0394,-0.144035 0.0782,-0.288962 0.13496,-0.427305 0.0375,-0.0914 0.0701,-0.188999 0.13496,-0.26426 0.036,-0.04178 0.0793,-0.09327 0.13496,-0.09698 0.0511,-0.0034 0.0987,0.03637 0.13496,0.07171 0.0661,0.0642 0.0978,0.155822 0.13496,0.239384 0.0577,0.129696 0.0962,0.267037 0.13547,0.403237 0.0532,0.184768 0.0945,0.372702 0.13496,0.560543 0.0507,0.235285 0.0935,0.472168 0.13496,0.709188 0.0492,0.281506 0.0928,0.563952 0.13494,0.846554 0.0482,0.323063 0.0922,0.646728 0.13496,0.970527 0.0474,0.359357 0.0918,0.719122 0.13496,1.07899 0.0469,0.389964 0.0912,0.780212 0.13496,1.170533 0.0464,0.414335 0.0909,0.82887 0.13496,1.243446 0.046,0.432144 0.0904,0.864434 0.13496,1.296721 0.0457,0.443104 0.0906,0.886274 0.13547,1.329451 0.0453,0.447017 0.0898,0.894105 0.13496,1.341133 0.0448,0.443871 0.0894,0.887763 0.13496,1.331567 0.0444,0.433701 0.0891,0.867393 0.13495,1.300951 0.0441,0.416653 0.0887,0.833268 0.13496,1.24969 0.0437,0.393034 0.0882,0.785999 0.13496,1.17869 0.0433,0.363184 0.0876,0.726268 0.13496,1.08896 0.0428,0.327616 0.0867,0.655114 0.13495,0.982007 0.0423,0.286965 0.0863,0.573737 0.13547,0.859647 0.0416,0.241716 0.0845,0.483311 0.13496,0.723388 0.0406,0.192927 0.0822,0.385883 0.13496,0.575951 0.0392,0.1414 0.0779,0.283789 0.13495,0.41925 0.0374,0.08879 0.0697,0.184367 0.13496,0.255999 0.0361,0.03958 0.0808,0.08734 0.13496,0.08852 0.0526,0.0012 0.0988,-0.04272 0.13496,-0.08017 0.0657,-0.06794 0.0977,-0.161474 0.13496,-0.247642 0.0573,-0.13256 0.0957,-0.27244 0.13496,-0.411193 0.053,-0.187464 0.0949,-0.377877 0.13547,-0.568297 0.0507,-0.237678 0.0935,-0.476949 0.13496,-0.716338 0.0491,-0.283703 0.0928,-0.568324 0.13495,-0.853101 0.0481,-0.324984 0.0922,-0.650559 0.13495,-0.976267 0.0474,-0.361041 0.0917,-0.722482 0.13496,-1.084025 0.0468,-0.391311 0.0912,-0.7829 0.13496,-1.174561 0.0464,-0.415412 0.0908,-0.83102 0.13496,-1.246669 0.0459,-0.432851 0.0905,-0.865838 0.13496,-1.298836 0.0456,-0.443467 0.09,-0.887031 0.13496,-1.330559 0.0453,-0.447036 0.0902,-0.894098 0.13547,-1.341134 0.0448,-0.443528 0.0894,-0.887092 0.13496,-1.330559 0.0444,-0.432998 0.089,-0.865985 0.13495,-1.298836 0.0441,-0.415615 0.0886,-0.831189 0.13496,-1.246568 0.0437,-0.391694 0.0881,-0.783317 0.13496,-1.174662 0.0433,-0.361543 0.0876,-0.722984 0.13495,-1.084025 0.0428,-0.325708 0.0868,-0.651283 0.13496,-0.976267 0.0422,-0.284776 0.0858,-0.569398 0.13496,-0.853101 0.0415,-0.239389 0.0843,-0.47866 0.13496,-0.716338 0.0406,-0.19042 0.0825,-0.380833 0.13547,-0.568297 0.0393,-0.138753 0.0777,-0.278632 0.13496,-0.411193 0.0372,-0.08617 0.0693,-0.179704 0.13495,-0.247642 0.0362,-0.03744 0.0824,-0.08134 0.13496,-0.08017 0.0541,0.0012 0.0989,0.04902 0.13496,0.08863 0.0652,0.07162 0.0975,0.167133 0.13496,0.255899 0.057,0.135457 0.0957,0.277849 0.13496,0.41925 0.0528,0.190068 0.0944,0.383024 0.13496,0.575951 0.0505,0.24011 0.0934,0.481741 0.13495,0.723489 0.0491,0.285877 0.0932,0.572614 0.13547,0.859546 0.0482,0.326893 0.0922,0.654392 0.13495,0.982007 0.0474,0.362692 0.0916,0.725776 0.13496,1.08896 0.0468,0.392692 0.0912,0.785656 0.13496,1.17869 0.0463,0.416423 0.0908,0.833037 0.13496,1.24969 0.0459,0.433558 0.0905,0.86725 0.13496,1.300951 0.0455,0.443804 0.0901,0.887696 0.13496,1.331567 0.0452,0.447028 0.0898,0.894107 0.13496,1.341133 0.0448,0.443169 0.0893,0.886364 0.13496,1.329451 0.0446,0.432304 0.0894,0.864569 0.13547,1.296721 0.0441,0.414568 0.0886,0.829111 0.13495,1.243446 0.0437,0.390321 0.0881,0.780569 0.13495,1.170533 0.0432,0.359901 0.0875,0.7197 0.13496,1.07909 0.0427,0.323767 0.0868,0.647398 0.13496,0.970427 0.0422,0.282602 0.0857,0.565048 0.13496,0.846554 0.0414,0.23702 0.0843,0.473903 0.13496,0.709188 0.0405,0.187874 0.0818,0.375846 0.13496,0.560644 0.0392,0.136168 0.0778,0.273471 0.13547,0.403136 0.0372,0.08356 0.0689,0.175188 0.13495,0.239384 0.0363,0.03533 0.0839,0.07512 0.13496,0.07171 0.0557,-0.0037 0.099,-0.0552 0.13496,-0.09698 0.0648,-0.07526 0.0975,-0.172857 0.13496,-0.26426 0.0567,-0.138311 0.0956,-0.283202 0.13496,-0.427205 0.0526,-0.192681 0.0943,-0.38815 0.13495,-0.583604 0.0505,-0.242488 0.0934,-0.486441 0.13496,-0.730539 0.049,-0.288029 0.0927,-0.576943 0.13496,-0.865991 0.0482,-0.328872 0.0926,-0.658279 0.13547,-0.987849 0.0474,-0.364329 0.0917,-0.729068 0.13495,-1.093893 0.0468,-0.394005 0.0912,-0.788278 0.13496,-1.182619 0.0463,-0.417432 0.0908,-0.835053 0.13496,-1.252712 0.0459,-0.434232 0.0905,-0.868593 0.13496,-1.302964 0.0455,-0.444141 0.0901,-0.888368 0.13496,-1.332573 0.0452,-0.446998 0.0898,-0.894043 0.13496,-1.341033 0.0447,-0.442802 0.0894,-0.88562 0.13496,-1.328344 0.0444,-0.431558 0.0889,-0.863111 0.13496,-1.294505 0.0441,-0.413547 0.089,-0.827024 0.13545,-1.240324 0.0437,-0.388939 0.0881,-0.77782 0.13496,-1.166405 0.0432,-0.358192 0.0875,-0.71628 0.13496,-1.073954 0.0427,-0.321856 0.0867,-0.643579 0.13496,-0.964685 0.0421,-0.280396 0.0857,-0.560632 0.13496,-0.839907 0.0414,-0.23465 0.0842,-0.469168 0.13496,-0.702039 0.0404,-0.185315 0.0818,-0.370718 0.13496,-0.552889 0.039,-0.133543 0.077,-0.268433 0.13496,-0.395179 0.037,-0.08098 0.0686,-0.170676 0.13496,-0.231025 0.0367,-0.03337 0.0857,-0.06893 0.13546,-0.06335 0.0571,0.0064 0.099,0.06141 0.13496,0.105442 0.0643,0.07884 0.0974,0.178498 0.13496,0.272517 0.0565,0.141182 0.0955,0.288623 0.13495,0.435261 0.0525,0.195261 0.0943,0.393209 0.13496,0.591159 0.0504,0.244864 0.0934,0.491151 0.13496,0.737587 0.049,0.290223 0.0927,0.581304 0.13496,0.872537 0.048,0.330716 0.0921,0.661988 0.13496,0.993388 0.0473,0.365991 0.0915,0.73237 0.13496,1.098829 0.0469,0.395326 0.0917,0.790889 0.13546,1.186546 0.0464,0.418432 0.0908,0.837069 0.13496,1.255733 0.0459,0.434906 0.0904,0.869939 0.13496,1.304979 0.0455,0.444445 0.0901,0.888974 0.13496,1.333479 0.0452,0.446966 0.0897,0.893977 0.13496,1.340932 0.0447,0.442401 0.0894,0.884816 0.13496,1.327135 0.0444,0.430822 0.089,0.861627 0.13495,1.29229 0.044,0.412432 0.0885,0.82483 0.13496,1.237001 0.0437,0.387583 0.0885,0.775062 0.13546,1.162275 0.0433,0.35651 0.0875,0.71293 0.13496,1.068919 0.0427,0.319849 0.0866,0.639559 0.13496,0.958642 0.0421,0.278221 0.0856,0.556285 0.13496,0.833362 0.0414,0.23228 0.0841,0.464433 0.13496,0.694888 0.0404,0.18279 0.0816,0.365695 0.13496,0.545235 0.0389,0.130888 0.0767,0.263259 0.13496,0.387023 0.0369,0.07838 0.0684,0.166136 0.13496,0.222666 0.0368,0.03128 0.0868,0.06239 0.13496,0.05489 0.0587,-0.0092 0.0994,-0.06744 0.13546,-0.113801 0.064,-0.08228 0.0972,-0.184134 0.13495,-0.280775 0.0562,-0.144008 0.0954,-0.293973 0.13496,-0.443217 0.0523,-0.197837 0.0942,-0.398265 0.13496,-0.598711 0.0503,-0.247272 0.0933,-0.495931 0.13496,-0.744738 0.0489,-0.29232 0.0927,-0.585474 0.13496,-0.878782 0.048,-0.332637 0.0921,-0.665819 0.13496,-0.999128 0.0473,-0.367575 0.0915,-0.73552 0.13496,-1.103562 0.0467,-0.396663 0.091,-0.793595 0.13495,-1.190574 0.0464,-0.419428 0.0912,-0.83901 0.13547,-1.258654 0.046,-0.435537 0.0904,-0.871216 0.13496,-1.306892 0.0455,-0.444716 0.0901,-0.889513 0.13496,-1.334285 0.0451,-0.446934 0.0897,-0.893912 0.13496,-1.340832 0.0447,-0.441966 0.0894,-0.883944 0.13495,-1.325825 0.0444,-0.430085 0.089,-0.860152 0.13496,-1.290074 0.044,-0.411328 0.0885,-0.822607 0.13496,-1.233678 0.0436,-0.386132 0.088,-0.772188 0.13496,-1.157945 0.0432,-0.354843 0.0873,-0.709591 0.13495,-1.063883 0.0427,-0.31792 0.0871,-0.635665 0.13547,-0.952802 0.0421,-0.276003 0.0855,-0.55187 0.13496,-0.826714 0.0413,-0.229844 0.084,-0.459564 0.13496,-0.687537 0.0403,-0.180232 0.0813,-0.360606 0.13496,-0.53748 0.0388,-0.128266 0.0762,-0.258166 0.13496,-0.378966 0.0368,-0.07583 0.0682,-0.161758 0.13496,-0.214408 0.0371,-0.02931 0.0883,-0.0559 0.13496,-0.04642 0.0599,0.01218 0.099,0.07364 0.13494,0.12226 0.0634,0.0858 0.0971,0.189782 0.13496,0.289034 0.056,0.146841 0.0958,0.299296 0.13547,0.451172 0.0523,0.200385 0.0942,0.403322 0.13496,0.606265 0.0502,0.249614 0.0933,0.500576 0.13496,0.751688 0.0488,0.294446 0.0926,0.589709 0.13496,0.885125 0.0479,0.334525 0.0921,0.669585 0.13496,1.004768 0.0473,0.369191 0.0915,0.738746 0.13496,1.108396 0.0467,0.397943 0.0911,0.79614 0.13496,1.194401 0.0463,0.420394 0.0907,0.840976 0.13495,1.261574 0.0459,0.436161 0.0908,0.872418 0.13547,1.308706 0.0456,0.445011 0.09,0.890119 0.13496,1.335191 0.0451,0.446801 0.0897,0.893645 0.13495,1.340429 0.0448,0.441564 0.0893,0.883141 0.13496,1.324616 0.0443,0.429282 0.089,0.858544 0.13496,1.287657 0.044,0.410255 0.0885,0.820463 0.13496,1.230456 0.0436,0.384692 0.088,0.769304 0.13496,1.153613 0.0431,0.353102 0.0874,0.706094 0.13495,1.058647 0.0426,0.315932 0.0864,0.631738 0.13496,0.94686 0.0421,0.273821 0.0859,0.547444 0.13547,0.820068 0.0413,0.227463 0.0839,0.454832 0.13496,0.680386 0.0403,0.177677 0.0812,0.355524 0.13496,0.529726 0.0387,0.125616 0.0759,0.253031 0.13496,0.370809 0.0367,0.07326 0.0682,0.157304 0.13496,0.206049 0.0375,0.02741 0.0896,0.0494 0.13495,0.03806 0.0613,-0.01532 0.099,-0.07973 0.13496,-0.130718 0.0629,-0.0892 0.0971,-0.195386 0.13495,-0.297292 0.0557,-0.149632 0.0952,-0.304685 0.13496,-0.45913 0.0522,-0.202962 0.0945,-0.40829 0.13547,-0.613717 0.0502,-0.251934 0.0933,-0.505218 0.13496,-0.758636 0.0488,-0.296607 0.0926,-0.594014 0.13496,-0.89157 0.0479,-0.33638 0.0921,-0.673281 0.13496,-1.010307 0.0472,-0.370774 0.0915,-0.741906 0.13496,-1.113129 0.0467,-0.399189 0.0911,-0.798628 0.13496,-1.198128 0.0462,-0.42137 0.0907,-0.842917 0.13495,-1.264494 0.0458,-0.436759 0.0904,-0.873637 0.13496,-1.310518 0.0455,-0.445257 0.09,-0.890599 0.13495,-1.335897 0.0452,-0.446743 0.0901,-0.893504 0.13547,-1.340226 0.0448,-0.441089 0.0893,-0.882204 0.13496,-1.323208 0.0444,-0.428511 0.0889,-0.857002 0.13496,-1.285341 0.0439,-0.409116 0.0885,-0.818182 0.13496,-1.227031 0.0436,-0.383284 0.088,-0.76649 0.13496,-1.149384 0.0431,-0.35136 0.0874,-0.702609 0.13496,-1.05341 0.0426,-0.313923 0.0866,-0.627706 0.13495,-0.940818 0.042,-0.2716 0.0854,-0.543043 0.13496,-0.813421 0.0412,-0.225007 0.0837,-0.44992 0.13496,-0.672933 0.0403,-0.175176 0.0814,-0.350497 0.13547,-0.522072 0.0387,-0.122985 0.0755,-0.24799 0.13496,-0.362752 0.0366,-0.07071 0.0682,-0.152908 0.13495,-0.197691 0.038,-0.02553 0.0908,-0.04266 0.13496,-0.02951 0.0624,0.01864 0.0989,0.08572 0.13496,0.139079 0.0625,0.09252 0.0969,0.20093 0.13495,0.305447 0.0555,0.152426 0.0952,0.310016 0.13496,0.467086 0.052,0.205516 0.094,0.413378 0.13496,0.62127 0.05,0.254305 0.0936,0.509847 0.13547,0.765585 0.0488,0.298685 0.0926,0.598184 0.13496,0.897815 0.0479,0.338232 0.0919,0.676978 0.13496,1.015845 0.0472,0.372323 0.0915,0.744997 0.13496,1.117763 0.0467,0.400501 0.0911,0.801249 0.13496,1.202055 0.0462,0.422246 0.0907,0.844664 0.13496,1.267112 0.0458,0.437365 0.0904,0.874848 0.13494,1.312331 0.0454,0.445527 0.09,0.89113 0.13496,1.336702 0.0451,0.446603 0.0896,0.893253 0.13496,1.339824 0.0448,0.440671 0.0897,0.881325 0.13547,1.321898 0.0445,0.427666 0.0889,0.855326 0.13496,1.282824 0.0439,0.407976 0.0885,0.815902 0.13496,1.223607 0.0435,0.38181 0.088,0.763539 0.13496,1.144953 0.0431,0.349618 0.0873,0.699123 0.13496,1.048172 0.0426,0.311949 0.0864,0.623756 0.13495,0.934877 0.042,0.269327 0.0854,0.538495 0.13496,0.806573 0.0412,0.222604 0.0837,0.445102 0.13496,0.665682 0.0401,0.172567 0.0807,0.345404 0.13496,0.514217 0.0386,0.120388 0.0755,0.242888 0.13546,0.354594 0.0366,0.06815 0.0684,0.148459 0.13496,0.189332 0.0386,0.02372 0.0921,0.03606 0.13496,0.02115 0.0635,-0.02205 0.0989,-0.09167 0.13496,-0.147437 0.062,-0.09583 0.0968,-0.206538 0.13496,-0.313706 0.0551,-0.155214 0.0952,-0.31536 0.13495,-0.475042 0.0518,-0.208049 0.094,-0.418351 0.13496,-0.628722 0.0499,-0.256598 0.0932,-0.514437 0.13496,-0.772433 0.0487,-0.300827 0.0925,-0.60243 0.13496,-0.90416 0.0479,-0.340063 0.0924,-0.680596 0.13547,-1.021283 0.0473,-0.373861 0.0915,-0.748089 0.13496,-1.122395 0.0467,-0.401746 0.0911,-0.803734 0.13496,-1.205782 0.0462,-0.423187 0.0907,-0.846545 0.13495,-1.269932 0.0458,-0.437904 0.0904,-0.875923 0.13496,-1.313942 0.0454,-0.445763 0.09,-0.891601 0.13495,-1.337407 0.0451,-0.44647 0.0897,-0.892979 0.13496,-1.339422 0.0446,-0.44016 0.0893,-0.880326 0.13496,-1.320387 0.0444,-0.42687 0.0888,-0.853726 0.13496,-1.280406 0.044,-0.406814 0.0889,-0.813547 0.13547,-1.220082 0.0436,-0.380328 0.0879,-0.76059 0.13496,-1.140523 0.0431,-0.347876 0.0873,-0.695638 0.13496,-1.042935 0.0426,-0.309907 0.0864,-0.619668 0.13496,-0.928732 0.0419,-0.26712 0.0853,-0.534084 0.13495,-0.799927 0.0411,-0.220171 0.0836,-0.44024 0.13496,-0.65833 0.0401,-0.169982 0.0806,-0.340236 0.13495,-0.506362 0.0385,-0.117716 0.0747,-0.237845 0.13496,-0.346438 0.0364,-0.06565 0.0687,-0.144014 0.13496,-0.180972 0.0394,-0.022 0.0935,-0.02943 0.13547,-0.01269 0.0643,0.02564 0.0988,0.0976 0.13496,0.155796 0.0616,0.09909 0.0967,0.212144 0.13496,0.321964 0.0549,0.157931 0.0951,0.320564 0.13496,0.482796 0.0517,0.210578 0.094,0.423339 0.13495,0.636175 0.0498,0.258969 0.0932,0.519148 0.13496,0.779482 0.0486,0.302888 0.0925,0.606522 0.13496,0.910303 0.0478,0.341872 0.0919,0.684247 0.13496,1.026722 0.0472,0.37543 0.0919,0.75117 0.13547,1.127028 0.0467,0.402948 0.091,0.806154 0.13495,1.209406 0.0462,0.424098 0.0907,0.848361 0.13496,1.272652 0.0458,0.438477 0.0903,0.877066 0.13496,1.315654 0.0454,0.445934 0.09,0.891939 0.13495,1.337911 0.0451,0.446338 0.0896,0.892713 0.13496,1.339019 0.0447,0.439658 0.0893,0.879321 0.13496,1.318876 0.0442,0.426033 0.0889,0.852042 0.13496,1.277889 0.0439,0.405632 0.0883,0.811219 0.13496,1.216557 0.0436,0.378872 0.0883,0.757631 0.13547,1.136091 0.0431,0.346093 0.0873,0.692088 0.13496,1.037598 0.0425,0.307866 0.0863,0.615585 0.13496,0.92259 0.0419,0.264847 0.0852,0.529537 0.13496,0.793078 0.0411,0.217737 0.0835,0.435379 0.13494,0.650978 0.04,0.16743 0.0804,0.335176 0.13496,0.498608 0.0384,0.115081 0.0743,0.232816 0.13496,0.338279 0.0363,0.06315 0.0692,0.139508 0.13496,0.172614 0.0401,0.02016 0.0941,0.02258 0.13496,0.0042 0.0652,-0.02933 0.0991,-0.103521 0.13547,-0.164256 0.0612,-0.102246 0.0966,-0.217673 0.13496,-0.330122 0.0547,-0.160701 0.095,-0.325906 0.13496,-0.490752 0.0516,-0.213073 0.0939,-0.428257 0.13495,-0.643527 0.0498,-0.261272 0.0931,-0.523724 0.13496,-0.78633 0.0486,-0.304947 0.0925,-0.610623 0.13496,-0.916447 0.0478,-0.343692 0.0919,-0.687867 0.13496,-1.03216 0.0471,-0.376935 0.0914,-0.754205 0.13495,-1.131559 0.0466,-0.40417 0.0909,-0.808582 0.13496,-1.213033 0.0462,-0.42498 0.0911,-0.850099 0.13547,-1.27527 0.0458,-0.439007 0.0903,-0.878142 0.13496,-1.317265 0.0454,-0.446136 0.09,-0.892343 0.13496,-1.338515 0.045,-0.446171 0.0896,-0.892378 0.13495,-1.338514 0.0446,-0.439157 0.0891,-0.878326 0.13496,-1.317366 0.0443,-0.425171 0.0892,-0.85029 0.13547,-1.27527 0.0439,-0.404418 0.0884,-0.808796 0.13496,-1.212933 0.0435,-0.377354 0.0879,-0.754623 0.13496,-1.131558 0.043,-0.344326 0.0872,-0.688536 0.13496,-1.032261 0.0425,-0.305824 0.0863,-0.6115 0.13496,-0.916447 0.0419,-0.262573 0.0852,-0.52499 0.13495,-0.78623 0.0411,-0.215302 0.0834,-0.430521 0.13495,-0.643627 0.04,-0.164846 0.0802,-0.330051 0.13496,-0.490752 0.0383,-0.112449 0.0738,-0.227884 0.13496,-0.330122 0.0364,-0.06071 0.0702,-0.134829 0.13547,-0.164155 0.0409,-0.01839 0.0949,-0.01604 0.13496,0.0041 0.0658,0.03308 0.0987,0.10946 0.13496,0.172614 0.0606,0.105463 0.0965,0.223198 0.13496,0.338279 0.0545,0.163432 0.095,0.331178 0.13496,0.498608 0.0515,0.215599 0.0939,0.433241 0.13496,0.650978 0.0497,0.263541 0.0931,0.528232 0.13495,0.793078 0.0485,0.307038 0.0925,0.614792 0.13496,0.922691 0.0477,0.345477 0.0918,0.691438 0.13495,1.037497 0.0472,0.37846 0.0918,0.757219 0.13547,1.136091 0.0467,0.405372 0.091,0.810993 0.13496,1.216658 0.0461,0.425814 0.0906,0.851789 0.13496,1.277788 0.0457,0.439555 0.0903,0.879219 0.13496,1.318876 0.0454,0.446307 0.0899,0.892681 0.13496,1.339019 0.045,0.445972 0.0896,0.891977 0.13495,1.337911 0.0446,0.438621 0.0892,0.877245 0.13496,1.315754 0.0442,0.424258 0.0888,0.848488 0.13496,1.272552 0.0438,0.403252 0.0883,0.806458 0.13496,1.209406 0.0435,0.375858 0.0883,0.751598 0.13547,1.127028 0.0431,0.342508 0.0872,0.684917 0.13496,1.026822 0.0425,0.303782 0.0862,0.607417 0.13495,0.910304 0.0418,0.260301 0.0851,0.520446 0.13496,0.779381 0.041,0.212836 0.0833,0.425597 0.13496,0.636175 0.0399,0.162231 0.08,0.324866 0.13495,0.482796 0.0382,0.10982 0.0734,0.222868 0.13496,0.321964 0.0362,0.0582 0.0705,0.130149 0.13496,0.155796 0.0419,0.01668 0.0956,0.0093 0.13496,-0.01259 0.0664,-0.03693 0.099,-0.115266 0.13547,-0.180973 0.0603,-0.108539 0.0964,-0.22872 0.13496,-0.346437 0.0543,-0.166158 0.0949,-0.336448 0.13496,-0.506463 0.0514,-0.218091 0.0939,-0.438159 0.13496,-0.65833 0.0496,-0.265843 0.093,-0.532807 0.13495,-0.799927 0.0485,-0.309064 0.0923,-0.618825 0.13495,-0.928732 0.0477,-0.347264 0.0919,-0.694992 0.13496,-1.042835 0.0471,-0.379932 0.0913,-0.760194 0.13496,-1.140522 0.0466,-0.406569 0.0914,-0.813336 0.13547,-1.220183 0.0462,-0.42668 0.0906,-0.853536 0.13496,-1.280406 0.0457,-0.44006 0.0903,-0.880227 0.13496,-1.320387 0.0454,-0.446443 0.0899,-0.892952 0.13496,-1.339422 0.045,-0.445772 0.0896,-0.891576 0.13496,-1.337306 0.0446,-0.438052 0.0892,-0.876106 0.13495,-1.314043 0.0442,-0.423387 0.0888,-0.846745 0.13496,-1.269932 0.0438,-0.402014 0.0883,-0.803968 0.13496,-1.205681 0.0434,-0.374339 0.0877,-0.748602 0.13496,-1.122496 0.043,-0.340687 0.0876,-0.68122 0.13546,-1.021283 0.0425,-0.301697 0.0863,-0.603265 0.13496,-0.904059 0.0418,-0.258029 0.085,-0.515902 0.13496,-0.772534 0.041,-0.210371 0.0831,-0.420674 0.13496,-0.628722 0.0398,-0.15965 0.0798,-0.319759 0.13495,-0.474941 0.0381,-0.107167 0.073,-0.217865 0.13496,-0.313707 0.0361,-0.05579 0.0715,-0.125468 0.13496,-0.147537 0.0429,-0.01493 0.0963,-0.0026 0.13496,0.02115 0.0666,0.04087 0.0984,0.121184 0.13496,0.189332 0.0599,0.111706 0.0967,0.234206 0.13547,0.354594 0.0542,0.168813 0.0948,0.34165 0.13496,0.514217 0.0513,0.22058 0.0938,0.443078 0.13496,0.665682 0.0495,0.268111 0.093,0.537315 0.13495,0.806674 0.0485,0.311089 0.0924,0.622861 0.13495,0.934776 0.0477,0.349049 0.0918,0.698554 0.13496,1.048172 0.047,0.381414 0.0914,0.763143 0.13496,1.144953 0.0465,0.407705 0.091,0.815631 0.13496,1.223607 0.0461,0.427531 0.0905,0.855225 0.13496,1.282924 0.0458,0.44054 0.0907,0.881161 0.13547,1.321798 0.0454,0.446571 0.0899,0.893221 0.13496,1.339824 0.045,0.445572 0.0896,0.891175 0.13496,1.336702 0.0445,0.437483 0.0892,0.874966 0.13495,1.312331 0.0442,0.422482 0.0888,0.844934 0.13496,1.267213 0.0438,0.400773 0.0883,0.801487 0.13496,1.201954 0.0434,0.372766 0.0878,0.74544 0.13496,1.117763 0.043,0.338867 0.0871,0.677613 0.13495,1.015845 0.0424,0.299632 0.0861,0.59913 0.13496,0.897815 0.0418,0.255738 0.0853,0.51128 0.13547,0.765585 0.041,0.207892 0.083,0.415754 0.13496,0.62127 0.0397,0.15707 0.0795,0.31466 0.13496,0.467086 0.038,0.104518 0.0725,0.212923 0.13495,0.305447 0.036,0.05336 0.0725,0.120447 0.13496,0.139079 0.0441,0.01316 0.0969,-0.004 0.13496,-0.02951 0.0668,-0.04478 0.0984,-0.126984 0.13496,-0.197691 0.0594,-0.114761 0.0962,-0.239751 0.13496,-0.362752 0.0539,-0.171527 0.0947,-0.346863 0.13496,-0.521971 0.0513,-0.223081 0.0942,-0.447977 0.13546,-0.673034 0.0497,-0.270361 0.093,-0.541821 0.13496,-0.813421 0.0484,-0.313112 0.0924,-0.626895 0.13495,-0.940818 0.0476,-0.350801 0.0918,-0.70205 0.13496,-1.05341 0.047,-0.382894 0.0913,-0.7661 0.13496,-1.149384 0.0465,-0.408849 0.0909,-0.817915 0.13496,-1.227031 0.0461,-0.428305 0.0906,-0.856762 0.13496,-1.28524 0.0457,-0.441037 0.0901,-0.882186 0.13496,-1.323309 0.0454,-0.446689 0.0903,-0.893415 0.13547,-1.340126 0.0451,-0.445331 0.0895,-0.890707 0.13496,-1.335997 0.0446,-0.436881 0.0892,-0.873759 0.13496,-1.310518 0.0442,-0.421544 0.0888,-0.843057 0.13495,-1.264394 0.0438,-0.399533 0.0883,-0.799006 0.13495,-1.198228 0.0434,-0.371223 0.0878,-0.742355 0.13496,-1.113129 0.0429,-0.337026 0.0871,-0.673928 0.13496,-1.010307 0.0424,-0.297523 0.0861,-0.594895 0.13496,-0.891469 0.0417,-0.253418 0.0848,-0.506702 0.13496,-0.758637 0.041,-0.20546 0.0833,-0.410823 0.13547,-0.613817 0.0397,-0.154445 0.0793,-0.309498 0.13496,-0.45913 0.0379,-0.101906 0.072,-0.208098 0.13496,-0.297292 0.036,-0.05097 0.0737,-0.115298 0.13495,-0.130617 0.0454,-0.01135 0.0975,0.01057 0.13496,0.03796 0.0668,0.04872 0.0983,0.132791 0.13496,0.206049 0.059,0.117778 0.0962,0.245192 0.13496,0.370809 0.0537,0.174234 0.0947,0.352118 0.13496,0.529827 0.0511,0.225522 0.0936,0.452855 0.13495,0.680285 0.0496,0.272623 0.0934,0.546247 0.13547,0.820068 0.0485,0.315122 0.0923,0.630928 0.13496,0.94686 0.0476,0.352553 0.0918,0.705545 0.13495,1.058647 0.047,0.384309 0.0913,0.768922 0.13496,1.153613 0.0465,0.409993 0.0909,0.820201 0.13496,1.230456 0.046,0.429113 0.0906,0.858376 0.13496,1.287657 0.0457,0.441475 0.0902,0.883052 0.13496,1.324616 0.0453,0.446817 0.0899,0.893695 0.13496,1.340529 0.0448,0.445073 0.0894,0.890181 0.13496,1.335192 0.0446,0.436288 0.0896,0.872545 0.13547,1.308706 0.0442,0.420598 0.0887,0.841179 0.13496,1.261573 0.0438,0.398261 0.0883,0.796459 0.13494,1.194402 0.0434,0.369616 0.0877,0.739137 0.13496,1.108295 0.0429,0.335183 0.087,0.670243 0.13496,1.004768 0.0424,0.295449 0.0861,0.590746 0.13496,0.885226 0.0417,0.251113 0.0848,0.502075 0.13496,0.751688 0.0408,0.202911 0.0828,0.405785 0.13496,0.606164 0.0396,0.151882 0.0789,0.304456 0.13496,0.451273 0.0379,0.09931 0.072,0.203226 0.13547,0.289034 0.036,0.0486 0.075,0.110098 0.13495,0.122259 0.0467,0.0095 0.0978,-0.0172 0.13496,-0.04652 0.0667,-0.05265 0.0982,-0.138509 0.13496,-0.214307 0.0587,-0.120794 0.0961,-0.250699 0.13496,-0.378966 0.0536,-0.176907 0.0947,-0.357316 0.13495,-0.537581 0.051,-0.227974 0.0937,-0.457692 0.13496,-0.687537 0.0494,-0.274843 0.0928,-0.550711 0.13496,-0.826714 0.0484,-0.317137 0.0927,-0.634883 0.13547,-0.952802 0.0477,-0.354259 0.0918,-0.708972 0.13496,-1.063782 0.047,-0.385756 0.0913,-0.771813 0.13495,-1.157945 0.0465,-0.411104 0.0909,-0.822418 0.13496,-1.233779 0.046,-0.429922 0.0905,-0.859989 0.13496,-1.290074 0.0456,-0.44188 0.0902,-0.883859 0.13496,-1.325825 0.0453,-0.446886 0.0899,-0.893831 0.13496,-1.340731 0.0448,-0.444806 0.0895,-0.889636 0.13496,-1.334386 0.0445,-0.435676 0.089,-0.871355 0.13496,-1.306892 0.0442,-0.419644 0.0891,-0.839227 0.13546,-1.258654 0.0438,-0.396945 0.0882,-0.793843 0.13495,-1.190473 0.0433,-0.368041 0.0877,-0.735987 0.13496,-1.103562 0.0429,-0.333309 0.087,-0.666491 0.13496,-0.999129 0.0423,-0.29334 0.086,-0.58653 0.13496,-0.878882 0.0416,-0.248774 0.0847,-0.497398 0.13496,-0.744637 0.0408,-0.200446 0.0827,-0.400872 0.13496,-0.598711 0.0395,-0.149276 0.0788,-0.299282 0.13496,-0.443318 0.0377,-0.09661 0.0711,-0.198415 0.13496,-0.280675 0.0361,-0.04639 0.0768,-0.104734 0.13547,-0.113901 0.0481,-0.0075 0.0982,0.02362 0.13495,0.05489 0.0666,0.05653 0.0981,0.144286 0.13496,0.222666 0.0583,0.123795 0.096,0.256203 0.13495,0.387123 0.0534,0.179543 0.0946,0.362446 0.13496,0.545235 0.0509,0.230423 0.0936,0.462541 0.13496,0.694788 0.0493,0.277076 0.0929,0.555141 0.13496,0.833362 0.0483,0.319116 0.0923,0.638861 0.13496,0.958743 0.0475,0.355989 0.0917,0.71241 0.13496,1.068919 0.047,0.38718 0.0918,0.774625 0.13546,1.162174 0.0465,0.412171 0.0909,0.824569 0.13496,1.237001 0.046,0.430696 0.0905,0.861536 0.13496,1.292391 0.0456,0.442286 0.0902,0.884666 0.13496,1.327034 0.0453,0.446955 0.0898,0.893966 0.13496,1.340932 0.0448,0.444505 0.0895,0.889034 0.13496,1.333479 0.0445,0.435041 0.0891,0.870073 0.13495,1.304979 0.0441,0.418664 0.0887,0.837292 0.13496,1.255733 0.0437,0.395681 0.0881,0.791306 0.13496,1.186646 0.0434,0.366445 0.0881,0.732762 0.13546,1.098729 0.0429,0.331424 0.087,0.662739 0.13496,0.993488 0.0423,0.2912 0.0859,0.582247 0.13496,0.872437 0.0416,0.246435 0.0846,0.492723 0.13496,0.737587 0.0407,0.19795 0.0825,0.395898 0.13496,0.591159 0.0394,0.146638 0.0785,0.294079 0.13496,0.435261 0.0376,0.09401 0.0706,0.193686 0.13496,0.272517 0.036,0.04403 0.0778,0.09903 0.13496,0.105442 0.0497,0.0056 0.0988,-0.02998 0.13545,-0.06335 0.0664,-0.06035 0.098,-0.15005 0.13496,-0.231025 0.058,-0.126714 0.0959,-0.261566 0.13496,-0.395078 0.0532,-0.182202 0.0945,-0.367642 0.13496,-0.55299 0.0508,-0.232872 0.0936,-0.467389 0.13496,-0.702039 0.0492,-0.279275 0.0929,-0.559511 0.13496,-0.839907 0.0482,-0.321106 0.0923,-0.642829 0.13496,-0.964685 0.0475,-0.357674 0.0918,-0.715762 0.13496,-1.073954 0.0469,-0.388585 0.0912,-0.777466 0.13496,-1.166405 0.0465,-0.413266 0.0913,-0.82671 0.13546,-1.240224 0.0461,-0.431427 0.0905,-0.863014 0.13496,-1.294605 0.0456,-0.442691 0.0902,-0.885475 0.13496,-1.328244 0.0452,-0.447023 0.0898,-0.894102 0.13496,-1.341133 0.0448,-0.444171 0.0895,-0.888364 0.13495,-1.332472 0.0446,-0.434371 0.0891,-0.868734 0.13496,-1.302965 0.0441,-0.417692 0.0887,-0.835346 0.13496,-1.252812 0.0437,-0.394341 0.0882,-0.788614 0.13496,-1.182619 0.0433,-0.364825 0.0875,-0.729563 0.13496,-1.093893 0.0429,-0.329536 0.0873,-0.658909 0.13546,-0.987748 0.0423,-0.289081 0.0859,-0.57803 0.13496,-0.866092 0.0416,-0.244098 0.0845,-0.488051 0.13496,-0.730539 0.0407,-0.195422 0.0824,-0.390854 0.13496,-0.583504 0.0394,-0.144034 0.0782,-0.288962 0.13496,-0.427305 0.0375,-0.09141 0.0701,-0.188999 0.13496,-0.26426 0.036,-0.04178 0.0793,-0.09327 0.13496,-0.09698 0.0511,-0.0034 0.0986,0.03637 0.13495,0.07171 0.0661,0.0642 0.0978,0.155823 0.13495,0.239384 0.0577,0.129697 0.0962,0.267037 0.13547,0.403237 0.0532,0.184768 0.0945,0.372702 0.13496,0.560543 0.0507,0.235285 0.0935,0.472169 0.13496,0.709188 0.0492,0.281506 0.0928,0.563952 0.13496,0.846554 0.0482,0.323063 0.0922,0.646728 0.13496,0.970527 0.0474,0.359357 0.0917,0.719122 0.13496,1.07899 0.0469,0.389964 0.0912,0.780212 0.13496,1.170533 0.0464,0.414335 0.0909,0.828869 0.13496,1.243446 0.046,0.432144 0.0904,0.864434 0.13495,1.296721 0.0457,0.443104 0.0906,0.886274 0.13547,1.329451 0.0453,0.447017 0.0898,0.894105 0.13495,1.341133 0.0449,0.443871 0.0895,0.887763 0.13496,1.331567 0.0444,0.433701 0.0891,0.867393 0.13496,1.300951 0.0441,0.416653 0.0887,0.833268 0.13496,1.24969 0.0437,0.393034 0.0882,0.785999 0.13496,1.17869 0.0433,0.363184 0.0876,0.726268 0.13496,1.08896 0.0428,0.327615 0.0867,0.655114 0.13495,0.982007 0.0423,0.286965 0.0862,0.573737 0.13547,0.859647 0.0416,0.241716 0.0845,0.483311 0.13496,0.723388 0.0406,0.192927 0.0822,0.385883 0.13496,0.575951 0.0392,0.141401 0.078,0.283789 0.13496,0.41925 0.0374,0.0888 0.0697,0.184367 0.13496,0.255999 0.0361,0.03958 0.0808,0.08734 0.13495,0.08852 0.0526,0.0012 0.0988,-0.04272 0.13496,-0.08017 0.0656,-0.06794 0.0977,-0.161473 0.13496,-0.247642 0.0573,-0.13256 0.0957,-0.27244 0.13495,-0.411193 0.053,-0.187464 0.0949,-0.377877 0.13547,-0.568297 0.0507,-0.237678 0.0935,-0.476949 0.13496,-0.716338 0.0491,-0.283703 0.0928,-0.568324 0.13496,-0.853101 0.0482,-0.324984 0.0922,-0.650559 0.13496,-0.976267 0.0474,-0.361041 0.0916,-0.722482 0.13496,-1.084025 0.0469,-0.391311 0.0912,-0.7829 0.13496,-1.174561 0.0464,-0.415412 0.0908,-0.83102 0.13496,-1.246669 0.0459,-0.432851 0.0905,-0.865838 0.13495,-1.298836 0.0456,-0.443467 0.09,-0.887031 0.13495,-1.330559 0.0453,-0.447036 0.0902,-0.894098 0.13547,-1.341134 0.0449,-0.443528 0.0894,-0.887092 0.13496,-1.330559 0.0445,-0.432998 0.0891,-0.865985 0.13496,-1.298836 0.0441,-0.415615 0.0886,-0.831189 0.13496,-1.246568 0.0437,-0.391694 0.0881,-0.783317 0.13496,-1.174662 0.0433,-0.361543 0.0876,-0.722984 0.13496,-1.084025 0.0428,-0.325708 0.0867,-0.651282 0.13496,-0.976267 0.0422,-0.284776 0.0858,-0.569398 0.13495,-0.853101 0.0415,-0.239389 0.0843,-0.47866 0.13496,-0.716338 0.0406,-0.19042 0.0825,-0.380833 0.13547,-0.568297 0.0392,-0.138753 0.0776,-0.278633 0.13496,-0.411193 0.0373,-0.08617 0.0693,-0.179704 0.13495,-0.247642 0.0362,-0.03744 0.0824,-0.08134 0.13496,-0.08017 0.0541,0.0012 0.0989,0.04902 0.13496,0.08862 0.0652,0.07162 0.0976,0.167133 0.13496,0.255899 0.057,0.135457 0.0957,0.27785 0.13495,0.41925 0.0528,0.190068 0.0944,0.383024 0.13496,0.575951 0.0505,0.24011 0.0934,0.481741 0.13496,0.723489 0.0491,0.285877 0.0932,0.572615 0.13547,0.859546 0.0482,0.326893 0.0922,0.654392 0.13496,0.982007 0.0474,0.362692 0.0916,0.725776 0.13496,1.08896 0.0468,0.392692 0.0912,0.785656 0.13496,1.17869 0.0463,0.416423 0.0908,0.833037 0.13496,1.24969 0.0459,0.433558 0.0905,0.86725 0.13495,1.300951 0.0455,0.443804 0.0901,0.887696 0.13495,1.331567 0.0452,0.447028 0.0898,0.894107 0.13496,1.341133 0.0447,0.443169 0.0893,0.886364 0.13496,1.329451 0.0446,0.432304 0.0894,0.864569 0.13547,1.296721 0.0441,0.414568 0.0886,0.829111 0.13496,1.243446 0.0436,0.390321 0.0881,0.780569 0.13496,1.170533 0.0432,0.359901 0.0875,0.7197 0.13496,1.07909 0.0427,0.323767 0.0867,0.647397 0.13496,0.970427 0.0422,0.282602 0.0857,0.565049 0.13495,0.846554 0.0414,0.23702 0.0843,0.473903 0.13496,0.709188 0.0405,0.187874 0.0817,0.375846 0.13496,0.560644 0.0391,0.136168 0.0778,0.273472 0.13546,0.403136 0.0372,0.08357 0.0689,0.175187 0.13496,0.239384 0.0363,0.03533 0.0839,0.07512 0.13496,0.07171 0.0557,-0.0037 0.099,-0.0552 0.13496,-0.09698 0.0648,-0.07526 0.0975,-0.172857 0.13496,-0.26426 0.0567,-0.138311 0.0956,-0.283202 0.13496,-0.427205 0.0526,-0.19268 0.0943,-0.38815 0.13495,-0.583604 0.0505,-0.242489 0.0934,-0.486441 0.13496,-0.730539 0.049,-0.288029 0.0927,-0.576943 0.13496,-0.865991 0.0482,-0.328872 0.0926,-0.658279 0.13547,-0.987849 0.0475,-0.36433 0.0916,-0.729068 0.13496,-1.093893 0.0468,-0.394005 0.0912,-0.788278 0.13496,-1.182619 0.0463,-0.417431 0.0908,-0.835053 0.13495,-1.252712 0.0459,-0.434232 0.0905,-0.868593 0.13496,-1.302964 0.0455,-0.444141 0.0901,-0.888368 0.13495,-1.332573 0.0452,-0.446998 0.0898,-0.894043 0.13496,-1.341033 0.0448,-0.442802 0.0894,-0.88562 0.13496,-1.328343 0.0445,-0.431559 0.0889,-0.863112 0.13496,-1.294506 0.0441,-0.413547 0.089,-0.827024 0.13547,-1.240324 0.0437,-0.388939 0.0881,-0.77782 0.13496,-1.166405 0.0432,-0.358192 0.0875,-0.71628 0.13496,-1.073954 0.0427,-0.321856 0.0866,-0.643579 0.13496,-0.964685 0.0421,-0.280396 0.0857,-0.560632 0.13496,-0.839907 0.0414,-0.234649 0.0842,-0.469168 0.13495,-0.702039 0.0404,-0.185315 0.0817,-0.370718 0.13495,-0.552889 0.0391,-0.133543 0.077,-0.268433 0.13496,-0.395179 0.037,-0.08098 0.0686,-0.170677 0.13496,-0.231025 0.0367,-0.03337 0.0857,-0.06893 0.13547,-0.06335 0.0572,0.0064 0.099,0.06141 0.13496,0.105442 0.0643,0.07884 0.0974,0.178499 0.13496,0.272517 0.0565,0.141182 0.0955,0.288623 0.13496,0.435261 0.0525,0.195261 0.0943,0.393209 0.13495,0.591159 0.0504,0.244864 0.0934,0.491151 0.13496,0.737587 0.049,0.290223 0.0927,0.581304 0.13496,0.872537 0.048,0.330716 0.092,0.661988 0.13496,0.993388 0.0473,0.365991 0.0915,0.732371 0.13496,1.098829 0.0468,0.395326 0.0916,0.790888 0.13546,1.186546 0.0464,0.418432 0.0908,0.837069 0.13496,1.255733 0.0459,0.434906 0.0904,0.869939 0.13496,1.304979 0.0455,0.444445 0.0901,0.888974 0.13496,1.333479 0.0451,0.446966 0.0897,0.893977 0.13495,1.340932 0.0448,0.442402 0.0894,0.884816 0.13496,1.327135 0.0444,0.430822 0.089,0.861627 0.13496,1.29229 0.044,0.412432 0.0885,0.82483 0.13496,1.237001 0.0437,0.387583 0.0885,0.775062 0.13547,1.162275 0.0433,0.35651 0.0875,0.71293 0.13496,1.068919 0.0427,0.319849 0.0867,0.639559 0.13496,0.958642 0.0421,0.278221 0.0856,0.556285 0.13496,0.833362 0.0414,0.23228 0.0841,0.464432 0.13495,0.694888 0.0404,0.182789 0.0816,0.365695 0.13495,0.545235 0.0389,0.130889 0.0767,0.263259 0.13496,0.387023 0.0369,0.07838 0.0684,0.166136 0.13496,0.222666 0.0368,0.03128 0.0869,0.06239 0.13496,0.05489 0.0587,-0.0092 0.0994,-0.06743 0.13547,-0.113801 0.064,-0.08228 0.0972,-0.184134 0.13496,-0.280775 0.0562,-0.144008 0.0954,-0.293973 0.13496,-0.443217 0.0524,-0.197837 0.0942,-0.398264 0.13496,-0.598711 0.0503,-0.247272 0.0933,-0.495931 0.13495,-0.744738 0.0489,-0.29232 0.0927,-0.585474 0.13496,-0.878782 0.048,-0.332637 0.0921,-0.665819 0.13496,-0.999128 0.0473,-0.367575 0.0916,-0.73552 0.13495,-1.103562 0.0467,-0.396663 0.0911,-0.793595 0.13496,-1.190574 0.0464,-0.419427 0.0912,-0.83901 0.13547,-1.258654 0.046,-0.435537 0.0904,-0.871216 0.13496,-1.306892 0.0455,-0.444716 0.0901,-0.889513 0.13496,-1.334285 0.0451,-0.446934 0.0897,-0.893912 0.13496,-1.340832 0.0448,-0.441965 0.0893,-0.883945 0.13495,-1.325825 0.0443,-0.430085 0.089,-0.860152 0.13496,-1.290074 0.044,-0.411328 0.0885,-0.822607 0.13496,-1.233678 0.0436,-0.386132 0.088,-0.772188 0.13496,-1.157945 0.0432,-0.354843 0.0873,-0.709591 0.13496,-1.063883 0.0427,-0.317919 0.087,-0.635665 0.13547,-0.952802 0.0421,-0.276003 0.0855,-0.55187 0.13495,-0.826714 0.0413,-0.229844 0.084,-0.459564 0.13496,-0.687537 0.0403,-0.180231 0.0813,-0.360606 0.13495,-0.53748 0.0388,-0.128266 0.0763,-0.258166 0.13496,-0.378966 0.0368,-0.07583 0.0682,-0.161758 0.13496,-0.214408 0.0371,-0.02931 0.0883,-0.0559 0.13496,-0.04642 0.0599,0.01218 0.099,0.07363 0.13496,0.12226 0.0634,0.0858 0.0971,0.189782 0.13496,0.289034 0.056,0.146841 0.0958,0.299296 0.13547,0.451172 0.0523,0.200385 0.0942,0.403322 0.13496,0.606265 0.0502,0.249614 0.0933,0.500576 0.13496,0.751688 0.0488,0.294446 0.0926,0.58971 0.13495,0.885125 0.048,0.334525 0.092,0.669585 0.13495,1.004768 0.0473,0.369191 0.0915,0.738746 0.13496,1.108396 0.0467,0.397943 0.0911,0.79614 0.13496,1.194401 0.0463,0.420394 0.0907,0.840976 0.13496,1.261574 0.0459,0.436161 0.0908,0.872418 0.13547,1.308706 0.0456,0.445011 0.09,0.890119 0.13496,1.335191 0.0451,0.446801 0.0897,0.893645 0.13496,1.340429 0.0448,0.441564 0.0893,0.883141 0.13495,1.324616 0.0443,0.429282 0.0889,0.858544 0.13496,1.287657 0.044,0.410255 0.0885,0.820463 0.13496,1.230456 0.0436,0.384692 0.088,0.769304 0.13496,1.153613 0.0431,0.353102 0.0874,0.706094 0.13496,1.058647 0.0426,0.315932 0.0864,0.631738 0.13495,0.94686 0.0421,0.273821 0.0859,0.547444 0.13547,0.820068 0.0413,0.227463 0.0839,0.454832 0.13496,0.680386 0.0403,0.177677 0.0813,0.355524 0.13496,0.529726 0.0387,0.125615 0.0759,0.253031 0.13495,0.370809 0.0367,0.07326 0.0682,0.157304 0.13496,0.206049 0.0375,0.02741 0.0896,0.0494 0.13496,0.03806 0.0613,-0.01532 0.099,-0.07973 0.13496,-0.130718 0.0629,-0.0892 0.097,-0.195385 0.13496,-0.297292 0.0557,-0.149632 0.0952,-0.304685 0.13496,-0.45913 0.0522,-0.202962 0.0945,-0.40829 0.13547,-0.613717 0.0501,-0.251934 0.0933,-0.505217 0.13496,-0.758636 0.0488,-0.296607 0.0926,-0.594014 0.13494,-0.89157 0.0479,-0.33638 0.0921,-0.673281 0.13496,-1.010307 0.0472,-0.370774 0.0915,-0.741906 0.13496,-1.113129 0.0467,-0.399189 0.0911,-0.798628 0.13496,-1.198128 0.0462,-0.42137 0.0907,-0.842916 0.13496,-1.264494 0.0458,-0.436759 0.0904,-0.873637 0.13496,-1.310518 0.0454,-0.445257 0.0899,-0.890599 0.13496,-1.335897 0.0452,-0.446743 0.0901,-0.893504 0.13547,-1.340226 0.0447,-0.441089 0.0893,-0.882204 0.13496,-1.323208 0.0443,-0.428511 0.0889,-0.857002 0.13495,-1.285341 0.0439,-0.409116 0.0885,-0.818182 0.13496,-1.227031 0.0435,-0.383284 0.088,-0.76649 0.13496,-1.149384 0.0431,-0.35136 0.0874,-0.702609 0.13495,-1.053409 0.0426,-0.313924 0.0865,-0.627706 0.13496,-0.940819 0.042,-0.271599 0.0854,-0.543043 0.13496,-0.813421 0.0412,-0.225007 0.0837,-0.44992 0.13496,-0.672933 0.0403,-0.175176 0.0815,-0.350496 0.13547,-0.522072 0.0387,-0.122984 0.0755,-0.247991 0.13495,-0.362752 0.0366,-0.07071 0.0682,-0.152908 0.13496,-0.197691 0.038,-0.02553 0.0908,-0.04266 0.13496,-0.02951 0.0624,0.01864 0.099,0.08572 0.13496,0.139079 0.0625,0.09252 0.0969,0.200929 0.13496,0.305447 0.0555,0.152425 0.0952,0.310016 0.13496,0.467086 0.052,0.205516 0.094,0.413378 0.13496,0.62127 0.05,0.254305 0.0937,0.509847 0.13546,0.765585 0.0488,0.298685 0.0926,0.598183 0.13496,0.897815 0.0479,0.338232 0.0919,0.676978 0.13495,1.015845 0.0472,0.372323 0.0915,0.744997 0.13496,1.117763 0.0467,0.400501 0.0911,0.801249 0.13496,1.202055 0.0462,0.422246 0.0907,0.844664 0.13496,1.267112 0.0458,0.437365 0.0904,0.874848 0.13496,1.312331 0.0454,0.445527 0.09,0.89113 0.13496,1.336702 0.0451,0.446603 0.0896,0.893253 0.13496,1.339824 0.0448,0.440671 0.0897,0.881325 0.13547,1.321898 0.0444,0.427666 0.0889,0.855327 0.13495,1.282824 0.0439,0.407977 0.0885,0.815903 0.13496,1.223607 0.0435,0.38181 0.088,0.763539 0.13495,1.144953 0.0431,0.349618 0.0873,0.699123 0.13496,1.048172 0.0426,0.311949 0.0865,0.623756 0.13496,0.934877 0.042,0.269326 0.0854,0.538495 0.13496,0.806573 0.0412,0.222604 0.0837,0.445102 0.13496,0.665682 0.0401,0.172567 0.0807,0.345404 0.13496,0.514217 0.0386,0.120388 0.0755,0.242887 0.13547,0.354594 0.0366,0.06815 0.0684,0.148458 0.13495,0.189332 0.0386,0.02372 0.092,0.03606 0.13496,0.02115 0.0635,-0.02205 0.0989,-0.09167 0.13496,-0.147437 0.062,-0.09583 0.0968,-0.206538 0.13496,-0.313706 0.0551,-0.155214 0.0952,-0.315359 0.13496,-0.475042 0.0518,-0.208049 0.094,-0.418351 0.13496,-0.628722 0.0499,-0.256598 0.0932,-0.514437 0.13495,-0.772433 0.0487,-0.300827 0.0925,-0.60243 0.13496,-0.90416 0.0479,-0.340063 0.0924,-0.680596 0.13546,-1.021283 0.0473,-0.373861 0.0915,-0.748089 0.13496,-1.122395 0.0466,-0.401746 0.0911,-0.803734 0.13496,-1.205782 0.0462,-0.423187 0.0907,-0.846545 0.13496,-1.269932 0.0458,-0.437904 0.0903,-0.875923 0.13496,-1.313942 0.0454,-0.445763 0.09,-0.891601 0.13496,-1.337407 0.0451,-0.44647 0.0897,-0.892979 0.13496,-1.339422 0.0446,-0.44016 0.0893,-0.880326 0.13496,-1.320387 0.0443,-0.42687 0.0888,-0.853726 0.13496,-1.280406 0.044,-0.406813 0.0889,-0.813547 0.13545,-1.220082 0.0436,-0.380328 0.0879,-0.76059 0.13496,-1.140523 0.0431,-0.347876 0.0873,-0.695638 0.13496,-1.042935 0.0426,-0.309907 0.0865,-0.619668 0.13496,-0.928732 0.0419,-0.26712 0.0853,-0.534084 0.13496,-0.799927 0.0411,-0.22017 0.0836,-0.44024 0.13496,-0.65833 0.0401,-0.169982 0.0806,-0.340236 0.13496,-0.506362 0.0385,-0.117716 0.0747,-0.237845 0.13496,-0.346438 0.0364,-0.06565 0.0687,-0.144014 0.13496,-0.180972 0.0394,-0.022 0.0935,-0.02943 0.13546,-0.01269 0.0644,0.02564 0.0988,0.0976 0.13496,0.155796 0.0616,0.09909 0.0967,0.212144 0.13496,0.321964 0.0549,0.157931 0.0951,0.320565 0.13495,0.482796 0.0517,0.210578 0.094,0.423338 0.13496,0.636175 0.0499,0.258968 0.0932,0.519148 0.13496,0.779482 0.0486,0.302888 0.0925,0.606522 0.13496,0.910303 0.0478,0.341872 0.0919,0.684247 0.13496,1.026722 0.0472,0.37543 0.0919,0.751171 0.13546,1.127028 0.0467,0.402948 0.091,0.806154 0.13496,1.209406 0.0462,0.424098 0.0907,0.848361 0.13496,1.272652 0.0458,0.438477 0.0903,0.877066 0.13496,1.315654 0.0454,0.445934 0.09,0.891939 0.13496,1.337911 0.0451,0.446338 0.0896,0.892713 0.13496,1.339019 0.0446,0.439659 0.0893,0.879321 0.13496,1.318876 0.0443,0.426033 0.0889,0.852042 0.13496,1.277889 0.0439,0.405632 0.0883,0.811218 0.13495,1.216557 0.0436,0.378872 0.0883,0.757631 0.13546,1.136091 0.0431,0.346093 0.0873,0.692088 0.13496,1.037598 0.0425,0.307866 0.0863,0.615585 0.13496,0.92259 0.0419,0.264847 0.0852,0.529537 0.13496,0.793078 0.0411,0.217737 0.0835,0.435379 0.13496,0.650979 0.04,0.167429 0.0804,0.335175 0.13496,0.498607 0.0384,0.115081 0.0743,0.232816 0.13496,0.338279 0.0363,0.06315 0.0692,0.139508 0.13496,0.172614 0.0401,0.02016 0.094,0.02258 0.13495,0.0042 0.0652,-0.02933 0.0991,-0.103521 0.13547,-0.164256 0.0612,-0.102246 0.0966,-0.217673 0.13495,-0.330122 0.0548,-0.160701 0.095,-0.325907 0.13496,-0.490752 0.0516,-0.213074 0.0939,-0.428257 0.13496,-0.643527 0.0498,-0.261271 0.0931,-0.523724 0.13496,-0.78633 0.0486,-0.304947 0.0925,-0.610623 0.13496,-0.916447 0.0478,-0.343692 0.0919,-0.687867 0.13496,-1.03216 0.0471,-0.376935 0.0914,-0.754204 0.13496,-1.131559 0.0466,-0.40417 0.0909,-0.808582 0.13495,-1.213033 0.0462,-0.42498 0.0911,-0.850099 0.13547,-1.27527 0.0458,-0.439007 0.0903,-0.878142 0.13496,-1.317265 0.0454,-0.446136 0.0896,-1.249086 0.13496,-1.338515"
           title="sin(5*x)"
           id="path36"
           sodipodi:nodetypes="caaaaaaaaaaaaaaaaaaaaaaaaaaaaaaaaaaaaaaaaaaaaaaaaaaaaaaaaaaaaaaaaaaaaaaaaaaaaaaaaaaaaaaaaaaaaaaaaaaaaaaaaaaaaaaaaaaaaaaaaaaaaaaaaaaaaaaaaaaaaaaaaaaaaaaaaaaaaaaaaaaaaaaaaaaaaaaaaaaaaaaaaaaaaaaaaaaaaaaaaaaaaaaaaaaaaaaaaaaaaaaaaaaaaaaaaaaaaaaaaaaaaaaaaaaaaaaaaaaaaaaaaaaaaaaaaaaaaaaaaaaaaaaaaaaaaaaaaaaaaaaaaaaaaaaaaaaaaaaaaaaaaaaaaaaaaaaaaaaaaaaaaaaaaaaaaaaaaaaaaaaaaaaaaaaaaaaaaaaaaaaaaaaaaaaaaaaaaaaaaaaaaaaaaaaaaaaaaaaaaaaaaaaaaaaaaaaaaaaaaaaaaaaaaaaaaaaaaaaaaaaaaaaaaaaaaaaaaaaaaaaaaaaaaaaaaaaaaaaaaaaaaaaaaaaaaaaaaaaaaaaaaaaaaaaaaaaaaaaaaaaaaaaaaaaaaaaaaaaaaaaaaaaaaaaaaaaaaaaaaaaaaaaaaaaaaaaaaaaaaaaaaaaaaaaaaaaaaaaaaaaaaaaaaaaaaaaaaaaaaaaaaaaaaaaaaaaaaaaaaaaaaaaaaaaaaaaaaaaaaaaaaaaaaaaaaaaaaaaaaaaaaaaaaaaaaaaaaaaaaaaaaaaaaaaaaaaaaaaaaaaaaaaaaaaaaaaaaaaaaaaaaaaaaaaaaaaaaaaaaaaaaaaaaaaaaaaaaaaaaaaaaaaaaaaaaaaaaaaaaaaaaaaaaaaaaaaaaaaaaaaaaaaaaaaaaaaaaaaaaaaaaaaaaaaaaaaaaaaaaaaaaaaaaaaaaaaaaaaaaaaaaaaaaaaaaaaaaaaaaaaaaaaaaaaaaaaaaaaaaaaaaaaaaaaaaaaaaaaaaaaaaaaaaaaaaaaaaaaaaaaaaaaaaaaaaaaaaac" />
      </g>
      <rect
         style="font-variation-settings:normal;display:inline;opacity:1;fill:none;fill-opacity:1;stroke:url(#linearGradient35);stroke-width:2.64583;stroke-linecap:round;stroke-linejoin:round;stroke-miterlimit:4;stroke-dasharray:none;stroke-dashoffset:0;stroke-opacity:1;paint-order:stroke markers fill;stop-color:#000000;stop-opacity:1"
         id="rect2-7"
         width="134.9375"
         height="29.104168"
         x="170.65625"
         y="38.364582"
         ry="2.6458321" />
    </g>
    <g
       id="g41"
       inkscape:label="lcd"
       transform="translate(198.43751)">
      <rect
         style="display:inline;fill:#95cf1a;fill-opacity:1;stroke:url(#linearGradient32);stroke-width:5.29167;stroke-linecap:round;stroke-linejoin:round;stroke-dasharray:none;stroke-opacity:1;paint-order:stroke markers fill"
         id="rect2"
         width="92.604164"
         height="71.4375"
         x="13.229166"
         y="39.6875"
         ry="2.6458321" />
      <text
         xml:space="preserve"
         style="font-style:normal;font-variant:normal;font-weight:normal;font-stretch:normal;font-size:11.9361px;line-height:10.5833px;font-family:Tiny5;-inkscape-font-specification:Tiny5;text-decoration-color:#000000;letter-spacing:0px;display:inline;fill:#003524;stroke-width:2.23804;stroke-linecap:round;stroke-linejoin:round;paint-order:stroke markers fill"
         x="17.757343"
         y="51.489235"
         id="text1"><tspan
           sodipodi:role="line"
           style="line-height:10.5833px;stroke-width:2.23804"
           x="17.757343"
           y="51.489235"
           id="tspan20">{{LCD_LINE1}}</tspan><tspan
           sodipodi:role="line"
           style="line-height:10.5833px;stroke-width:2.23804"
           x="17.757343"
           y="62.072536"
           id="tspan21">{{LCD_LINE2}}</tspan><tspan
           sodipodi:role="line"
           style="line-height:10.5833px;stroke-width:2.23804"
           x="17.757343"
           y="72.655838"
           id="tspan22">{{LCD_LINE3}}</tspan><tspan
           sodipodi:role="line"
           style="line-height:10.5833px;stroke-width:2.23804"
           x="17.757343"
           y="83.239136"
           id="tspan23">{{LCD_LINE4}}</tspan><tspan
           sodipodi:role="line"
           style="line-height:10.5833px;stroke-width:2.23804"
           x="17.757343"
           y="93.822433"
           id="tspan24">{{LCD_LINE5}}</tspan><tspan
           sodipodi:role="line"
           style="line-height:10.5833px;stroke-width:2.23804"
           x="17.757343"
           y="104.40573"
           id="tspan25">{{LCD_LINE6}}</tspan></text>
    </g>
    <circle
       style="font-variation-settings:normal;opacity:1;fill:#e2c196;fill-opacity:1;stroke:#b57b30;stroke-width:2.59292;stroke-linecap:round;stroke-linejoin:round;stroke-miterlimit:4;stroke-dasharray:0.259292, 3.88937;stroke-dashoffset:0;stroke-opacity:1;paint-order:stroke markers fill"
       id="path37"
       cx="26.458332"
       cy="97.895828"
       inkscape:label="adjustment_knob"
       r="13.229166" />
    <g
       id="g46"
       inkscape:label="logo">
      <rect
         style="opacity:1;fill:url(#linearGradient43);fill-opacity:1;stroke:none;stroke-width:0;stroke-linecap:round;stroke-linejoin:round;stroke-miterlimit:4;stroke-dasharray:none;stroke-dashoffset:0;stroke-opacity:1;paint-order:stroke markers fill;font-variation-settings:normal;stop-color:#000000;stop-opacity:1"
         id="rect42"
         width="171.97917"
         height="19.843748"
         x="13.229166"
         y="39.6875"
         ry="2.6458321" />
      <text
         xml:space="preserve"
         style="font-style:normal;font-variant:normal;font-weight:normal;font-stretch:normal;font-size:15.875px;line-height:79.3747px;font-family:'Freestyle Script';-inkscape-font-specification:'Freestyle Script';text-decoration-color:#000000;letter-spacing:0px;opacity:1;fill:#0c0c0c;fill-opacity:1;stroke:none;stroke-width:2.59292;stroke-linecap:round;stroke-linejoin:round;stroke-miterlimit:4;stroke-dasharray:0.259292, 3.88937;stroke-dashoffset:0;stroke-opacity:1;paint-order:stroke markers fill"
         x="99.708145"
         y="53.688869"
         id="text41"><tspan
           sodipodi:role="line"
           id="tspan41"
           style="font-style:normal;font-variant:normal;font-weight:normal;font-stretch:normal;font-size:15.875px;line-height:79.3747px;font-family:'Freestyle Script';-inkscape-font-specification:'Freestyle Script';text-align:center;text-anchor:middle;fill:#0c0c0c;fill-opacity:1;stroke:none;stroke-width:2.59292"
           x="99.708145"
           y="53.688869">Doohickey        <tspan
   style="font-style:normal;font-variant:normal;font-weight:normal;font-stretch:normal;font-family:'Tw Cen MT Condensed';-inkscape-font-specification:'Tw Cen MT Condensed, '"
   id="tspan43">Communicator</tspan><tspan
   style="font-style:normal;font-variant:normal;font-weight:normal;font-stretch:normal;font-size:15.875px;line-height:79.3747px;font-family:'Tw Cen MT Condensed';-inkscape-font-specification:'Tw Cen MT Condensed, ';text-align:center;text-anchor:middle;fill:#0c0c0c;fill-opacity:1"
   id="tspan42"> 3000</tspan></tspan></text>
    </g>
  </g>
</svg>
